<svg width="531" height="116" viewBox="0 0 531 116" fill="none" xmlns="http://www.w3.org/2000/svg">
<path d="M129.494 16.5455L142.365 55.4716H142.872L155.719 16.5455H165.571L148.136 66H137.077L119.666 16.5455H129.494ZM171.699 66V28.9091H180.44V66H171.699ZM176.093 23.6449C174.709 23.6449 173.518 23.1861 172.52 22.2685C171.521 21.3348 171.022 20.2159 171.022 18.9119C171.022 17.5919 171.521 16.473 172.52 15.5554C173.518 14.6217 174.709 14.1548 176.093 14.1548C177.494 14.1548 178.685 14.6217 179.667 15.5554C180.665 16.473 181.164 17.5919 181.164 18.9119C181.164 20.2159 180.665 21.3348 179.667 22.2685C178.685 23.1861 177.494 23.6449 176.093 23.6449ZM198.17 44.267V66H189.429V28.9091H197.784V35.2116H198.219C199.072 33.1349 200.432 31.4848 202.3 30.2614C204.183 29.0379 206.509 28.4261 209.278 28.4261C211.838 28.4261 214.068 28.9735 215.967 30.0682C217.883 31.1629 219.364 32.7486 220.411 34.8253C221.473 36.902 221.996 39.4214 221.98 42.3835V66H213.239V43.7358C213.239 41.2566 212.595 39.3168 211.307 37.9162C210.035 36.5156 208.272 35.8153 206.018 35.8153C204.489 35.8153 203.129 36.1534 201.938 36.8295C200.762 37.4896 199.837 38.4474 199.161 39.7031C198.5 40.9588 198.17 42.4801 198.17 44.267ZM247.045 66.7244C243.343 66.7244 240.163 65.9115 237.507 64.2855C234.867 62.6596 232.83 60.4138 231.398 57.5483C229.981 54.6667 229.273 51.3504 229.273 47.5994C229.273 43.8324 229.997 40.508 231.446 37.6264C232.895 34.7287 234.939 32.4749 237.58 30.8651C240.236 29.2391 243.375 28.4261 246.997 28.4261C250.008 28.4261 252.672 28.9815 254.99 30.0923C257.324 31.187 259.184 32.7405 260.568 34.7528C261.953 36.7491 262.741 39.0833 262.935 41.7557H254.58C254.241 39.9687 253.437 38.4796 252.165 37.2884C250.909 36.081 249.227 35.4773 247.118 35.4773C245.331 35.4773 243.761 35.9602 242.409 36.9261C241.057 37.8759 240.002 39.2443 239.246 41.0312C238.505 42.8182 238.135 44.9593 238.135 47.4545C238.135 49.982 238.505 52.1553 239.246 53.9744C239.986 55.7775 241.025 57.17 242.361 58.152C243.713 59.1179 245.299 59.6009 247.118 59.6009C248.406 59.6009 249.557 59.3594 250.571 58.8764C251.601 58.3774 252.463 57.661 253.155 56.7273C253.847 55.7936 254.322 54.6586 254.58 53.3224H262.935C262.725 55.9465 261.953 58.2727 260.616 60.3011C259.28 62.3134 257.461 63.8911 255.159 65.0341C252.857 66.161 250.152 66.7244 247.045 66.7244ZM286.533 66.7244C282.814 66.7244 279.603 65.9517 276.898 64.4062C274.21 62.8447 272.141 60.6392 270.692 57.7898C269.243 54.9242 268.519 51.5516 268.519 47.6719C268.519 43.8565 269.243 40.508 270.692 37.6264C272.157 34.7287 274.202 32.4749 276.826 30.8651C279.45 29.2391 282.533 28.4261 286.074 28.4261C288.36 28.4261 290.517 28.7964 292.546 29.5369C294.59 30.2614 296.393 31.3883 297.955 32.9176C299.533 34.447 300.772 36.3949 301.674 38.7614C302.575 41.1117 303.026 43.9129 303.026 47.1648V49.8452H272.624V43.9531H294.647C294.631 42.2789 294.268 40.7898 293.56 39.4858C292.852 38.1657 291.862 37.1274 290.59 36.3707C289.334 35.6141 287.869 35.2358 286.195 35.2358C284.408 35.2358 282.838 35.6705 281.486 36.5398C280.134 37.393 279.079 38.5199 278.323 39.9205C277.582 41.3049 277.204 42.8262 277.188 44.4844V49.6278C277.188 51.785 277.582 53.6364 278.371 55.1818C279.16 56.7112 280.263 57.8864 281.679 58.7074C283.096 59.5123 284.754 59.9148 286.654 59.9148C287.926 59.9148 289.077 59.7377 290.107 59.3835C291.137 59.0133 292.031 58.474 292.787 57.7656C293.544 57.0573 294.115 56.1799 294.502 55.1335L302.664 56.0511C302.149 58.2083 301.167 60.0919 299.718 61.7017C298.285 63.2955 296.45 64.535 294.212 65.4205C291.974 66.2898 289.415 66.7244 286.533 66.7244ZM319.163 44.267V66H310.421V28.9091H318.776V35.2116H319.211C320.064 33.1349 321.424 31.4848 323.292 30.2614C325.175 29.0379 327.502 28.4261 330.271 28.4261C332.83 28.4261 335.06 28.9735 336.96 30.0682C338.875 31.1629 340.356 32.7486 341.403 34.8253C342.465 36.902 342.988 39.4214 342.972 42.3835V66H334.231V43.7358C334.231 41.2566 333.587 39.3168 332.299 37.9162C331.027 36.5156 329.264 35.8153 327.011 35.8153C325.481 35.8153 324.121 36.1534 322.93 36.8295C321.754 37.4896 320.829 38.4474 320.153 39.7031C319.493 40.9588 319.163 42.4801 319.163 44.267ZM370.38 28.9091V35.6705H349.058V28.9091H370.38ZM354.322 20.0227H363.063V54.8438C363.063 56.0189 363.24 56.9205 363.594 57.5483C363.965 58.16 364.448 58.5786 365.043 58.804C365.639 59.0294 366.299 59.142 367.023 59.142C367.571 59.142 368.07 59.1018 368.521 59.0213C368.987 58.9408 369.342 58.8684 369.583 58.804L371.056 65.6378C370.589 65.7988 369.921 65.9759 369.052 66.169C368.199 66.3622 367.152 66.4749 365.913 66.5071C363.723 66.5715 361.751 66.2415 359.996 65.517C358.242 64.7765 356.849 63.6335 355.819 62.0881C354.805 60.5426 354.306 58.6108 354.322 56.2926V20.0227ZM420.408 33.2315H411.377C411.119 31.7505 410.644 30.4384 409.952 29.2955C409.26 28.1364 408.399 27.1544 407.368 26.3494C406.338 25.5445 405.163 24.9408 403.843 24.5384C402.539 24.1198 401.13 23.9105 399.617 23.9105C396.928 23.9105 394.546 24.5866 392.469 25.9389C390.392 27.2751 388.766 29.2391 387.591 31.831C386.416 34.4067 385.828 37.554 385.828 41.2727C385.828 45.0559 386.416 48.2434 387.591 50.8352C388.783 53.411 390.408 55.3589 392.469 56.679C394.546 57.983 396.92 58.6349 399.593 58.6349C401.074 58.6349 402.458 58.4418 403.746 58.0554C405.05 57.6529 406.217 57.0653 407.248 56.2926C408.294 55.5199 409.171 54.5701 409.88 53.4432C410.604 52.3163 411.103 51.0284 411.377 49.5795L420.408 49.6278C420.07 51.9782 419.337 54.1837 418.211 56.2443C417.1 58.3049 415.643 60.1241 413.84 61.7017C412.037 63.2633 409.928 64.4867 407.513 65.3722C405.098 66.2415 402.418 66.6761 399.472 66.6761C395.125 66.6761 391.246 65.67 387.833 63.6577C384.42 61.6454 381.731 58.7396 379.767 54.9403C377.803 51.1411 376.821 46.5852 376.821 41.2727C376.821 35.9441 377.811 31.3883 379.792 27.6051C381.772 23.8059 384.468 20.9001 387.881 18.8878C391.294 16.8755 395.158 15.8693 399.472 15.8693C402.225 15.8693 404.784 16.2557 407.151 17.0284C409.517 17.8011 411.626 18.9361 413.478 20.4332C415.329 21.9143 416.85 23.7334 418.042 25.8906C419.249 28.0317 420.038 30.4787 420.408 33.2315ZM444.405 66.7244C440.783 66.7244 437.643 65.9276 434.987 64.3338C432.331 62.7401 430.27 60.5104 428.805 57.6449C427.357 54.7794 426.632 51.4309 426.632 47.5994C426.632 43.768 427.357 40.4115 428.805 37.5298C430.27 34.6482 432.331 32.4105 434.987 30.8168C437.643 29.223 440.783 28.4261 444.405 28.4261C448.027 28.4261 451.166 29.223 453.822 30.8168C456.479 32.4105 458.531 34.6482 459.98 37.5298C461.445 40.4115 462.178 43.768 462.178 47.5994C462.178 51.4309 461.445 54.7794 459.98 57.6449C458.531 60.5104 456.479 62.7401 453.822 64.3338C451.166 65.9276 448.027 66.7244 444.405 66.7244ZM444.453 59.7216C446.417 59.7216 448.059 59.1823 449.379 58.1037C450.699 57.009 451.681 55.544 452.325 53.7088C452.985 51.8736 453.315 49.8291 453.315 47.5753C453.315 45.3054 452.985 43.2528 452.325 41.4176C451.681 39.5663 450.699 38.0933 449.379 36.9986C448.059 35.9039 446.417 35.3565 444.453 35.3565C442.441 35.3565 440.767 35.9039 439.43 36.9986C438.11 38.0933 437.12 39.5663 436.46 41.4176C435.816 43.2528 435.494 45.3054 435.494 47.5753C435.494 49.8291 435.816 51.8736 436.46 53.7088C437.12 55.544 438.11 57.009 439.43 58.1037C440.767 59.1823 442.441 59.7216 444.453 59.7216ZM469.597 66V28.9091H478.073V35.0909H478.459C479.135 32.9498 480.294 31.2997 481.936 30.1406C483.595 28.9654 485.486 28.3778 487.611 28.3778C488.094 28.3778 488.633 28.402 489.229 28.4503C489.841 28.4825 490.348 28.5388 490.75 28.6193V36.6605C490.38 36.5317 489.792 36.419 488.988 36.3224C488.199 36.2098 487.434 36.1534 486.694 36.1534C485.1 36.1534 483.667 36.4995 482.395 37.1918C481.14 37.8679 480.15 38.8097 479.425 40.017C478.701 41.2244 478.338 42.617 478.338 44.1946V66H469.597ZM511.451 66.7244C507.732 66.7244 504.521 65.9517 501.816 64.4062C499.128 62.8447 497.059 60.6392 495.61 57.7898C494.161 54.9242 493.437 51.5516 493.437 47.6719C493.437 43.8565 494.161 40.508 495.61 37.6264C497.075 34.7287 499.12 32.4749 501.744 30.8651C504.368 29.2391 507.451 28.4261 510.992 28.4261C513.278 28.4261 515.435 28.7964 517.464 29.5369C519.508 30.2614 521.311 31.3883 522.873 32.9176C524.451 34.447 525.69 36.3949 526.592 38.7614C527.493 41.1117 527.944 43.9129 527.944 47.1648V49.8452H497.542V43.9531H519.565C519.549 42.2789 519.186 40.7898 518.478 39.4858C517.77 38.1657 516.78 37.1274 515.508 36.3707C514.252 35.6141 512.787 35.2358 511.113 35.2358C509.326 35.2358 507.756 35.6705 506.404 36.5398C505.052 37.393 503.997 38.5199 503.241 39.9205C502.5 41.3049 502.122 42.8262 502.106 44.4844V49.6278C502.106 51.785 502.5 53.6364 503.289 55.1818C504.078 56.7112 505.181 57.8864 506.597 58.7074C508.014 59.5123 509.672 59.9148 511.572 59.9148C512.844 59.9148 513.995 59.7377 515.025 59.3835C516.055 59.0133 516.949 58.474 517.705 57.7656C518.462 57.0573 519.033 56.1799 519.42 55.1335L527.582 56.0511C527.067 58.2083 526.085 60.0919 524.636 61.7017C523.203 63.2955 521.368 64.535 519.13 65.4205C516.892 66.2898 514.333 66.7244 511.451 66.7244Z" fill="#0A2149"/>
<path d="M135.051 76.2727V93H133.026V76.2727H135.051ZM140.779 85.4531V93H138.851V80.4545H140.713V82.4148H140.877C141.171 81.7777 141.617 81.2659 142.216 80.8793C142.815 80.4872 143.588 80.2912 144.536 80.2912C145.385 80.2912 146.128 80.4654 146.766 80.8139C147.403 81.157 147.898 81.6797 148.252 82.3821C148.606 83.0791 148.783 83.9612 148.783 85.0284V93H146.855V85.1591C146.855 84.1735 146.599 83.4058 146.088 82.8558C145.576 82.3004 144.873 82.0227 143.98 82.0227C143.365 82.0227 142.815 82.1561 142.331 82.4229C141.851 82.6897 141.473 83.0791 141.195 83.5909C140.918 84.1027 140.779 84.7235 140.779 85.4531ZM157.892 80.4545V82.0881H151.129V80.4545H157.892ZM153.155 93V78.723C153.155 78.0043 153.323 77.4053 153.661 76.9261C153.999 76.447 154.437 76.0876 154.976 75.848C155.515 75.6084 156.084 75.4886 156.683 75.4886C157.157 75.4886 157.543 75.5268 157.843 75.603C158.142 75.6792 158.366 75.75 158.513 75.8153L157.957 77.4815C157.859 77.4489 157.723 77.408 157.549 77.359C157.38 77.31 157.157 77.2855 156.879 77.2855C156.242 77.2855 155.782 77.4461 155.499 77.7674C155.221 78.0887 155.082 78.5597 155.082 79.1804V93H153.155ZM165.173 93.2614C164.041 93.2614 163.047 92.9918 162.192 92.4528C161.343 91.9137 160.678 91.1596 160.199 90.1903C159.725 89.2211 159.489 88.0885 159.489 86.7926C159.489 85.4858 159.725 84.3451 160.199 83.3704C160.678 82.3957 161.343 81.6388 162.192 81.0998C163.047 80.5607 164.041 80.2912 165.173 80.2912C166.306 80.2912 167.297 80.5607 168.146 81.0998C169.001 81.6388 169.665 82.3957 170.139 83.3704C170.618 84.3451 170.858 85.4858 170.858 86.7926C170.858 88.0885 170.618 89.2211 170.139 90.1903C169.665 91.1596 169.001 91.9137 168.146 92.4528C167.297 92.9918 166.306 93.2614 165.173 93.2614ZM165.173 91.5298C166.034 91.5298 166.741 91.3093 167.297 90.8683C167.852 90.4272 168.263 89.8473 168.53 89.1286C168.797 88.4098 168.93 87.6312 168.93 86.7926C168.93 85.9541 168.797 85.1727 168.53 84.4485C168.263 83.7243 167.852 83.139 167.297 82.6925C166.741 82.246 166.034 82.0227 165.173 82.0227C164.313 82.0227 163.605 82.246 163.05 82.6925C162.494 83.139 162.083 83.7243 161.816 84.4485C161.55 85.1727 161.416 85.9541 161.416 86.7926C161.416 87.6312 161.55 88.4098 161.816 89.1286C162.083 89.8473 162.494 90.4272 163.05 90.8683C163.605 91.3093 164.313 91.5298 165.173 91.5298ZM173.8 93V80.4545H175.663V82.3494H175.793C176.022 81.7287 176.436 81.225 177.035 80.8384C177.634 80.4518 178.309 80.2585 179.06 80.2585C179.202 80.2585 179.379 80.2612 179.591 80.2667C179.804 80.2721 179.964 80.2803 180.073 80.2912V82.2514C180.008 82.2351 179.858 82.2106 179.624 82.1779C179.395 82.1398 179.153 82.1207 178.897 82.1207C178.287 82.1207 177.743 82.2487 177.263 82.5046C176.79 82.7551 176.414 83.1036 176.136 83.5501C175.864 83.9911 175.728 84.4948 175.728 85.0611V93H173.8ZM182.358 93V80.4545H184.22V82.4148H184.384C184.645 81.745 185.067 81.225 185.65 80.8548C186.232 80.479 186.932 80.2912 187.749 80.2912C188.576 80.2912 189.265 80.479 189.815 80.8548C190.37 81.225 190.803 81.745 191.114 82.4148H191.244C191.566 81.7668 192.047 81.2522 192.69 80.8711C193.333 80.4845 194.103 80.2912 195.001 80.2912C196.123 80.2912 197.041 80.6424 197.754 81.3448C198.467 82.0418 198.824 83.1281 198.824 84.6037V93H196.896V84.6037C196.896 83.678 196.643 83.0165 196.137 82.619C195.63 82.2215 195.034 82.0227 194.348 82.0227C193.466 82.0227 192.783 82.2895 192.298 82.8232C191.813 83.3513 191.571 84.0211 191.571 84.8324V93H189.611V84.4077C189.611 83.6944 189.379 83.1199 188.917 82.6843C188.454 82.2433 187.857 82.0227 187.128 82.0227C186.627 82.0227 186.159 82.1561 185.723 82.4229C185.293 82.6897 184.944 83.06 184.678 83.5337C184.416 84.002 184.286 84.5438 184.286 85.1591V93H182.358ZM206.04 93.294C205.245 93.294 204.523 93.1443 203.876 92.8448C203.228 92.5399 202.713 92.1016 202.332 91.5298C201.951 90.9527 201.76 90.2557 201.76 89.4389C201.76 88.7202 201.902 88.1375 202.185 87.6911C202.468 87.2391 202.846 86.8852 203.32 86.6293C203.794 86.3733 204.317 86.1828 204.888 86.0575C205.465 85.9268 206.045 85.8234 206.628 85.7472C207.39 85.6491 208.008 85.5756 208.482 85.5266C208.961 85.4722 209.31 85.3823 209.528 85.2571C209.751 85.1319 209.862 84.9141 209.862 84.6037V84.5384C209.862 83.7325 209.642 83.1063 209.201 82.6598C208.765 82.2133 208.104 81.9901 207.216 81.9901C206.296 81.9901 205.574 82.1915 205.052 82.5945C204.529 82.9974 204.161 83.4276 203.949 83.8849L202.119 83.2315C202.446 82.4692 202.882 81.8757 203.426 81.451C203.976 81.0208 204.575 80.7214 205.223 80.5526C205.877 80.3783 206.519 80.2912 207.151 80.2912C207.554 80.2912 208.017 80.3402 208.539 80.4382C209.067 80.5308 209.577 80.7241 210.067 81.0181C210.562 81.3121 210.973 81.7559 211.3 82.3494C211.627 82.9429 211.79 83.7379 211.79 84.7344V93H209.862V91.3011H209.764C209.634 91.5734 209.416 91.8647 209.111 92.1751C208.806 92.4854 208.4 92.7495 207.894 92.9673C207.388 93.1851 206.77 93.294 206.04 93.294ZM206.334 91.5625C207.096 91.5625 207.739 91.4128 208.262 91.1133C208.79 90.8138 209.187 90.4272 209.454 89.9535C209.726 89.4798 209.862 88.9815 209.862 88.4588V86.6946C209.781 86.7926 209.601 86.8825 209.323 86.9641C209.051 87.0404 208.735 87.1084 208.376 87.1683C208.022 87.2228 207.676 87.2718 207.339 87.3153C207.006 87.3535 206.737 87.3861 206.53 87.4134C206.029 87.4787 205.561 87.5849 205.125 87.7319C204.695 87.8735 204.347 88.0885 204.08 88.3771C203.818 88.6603 203.688 89.0469 203.688 89.5369C203.688 90.2067 203.935 90.7131 204.431 91.0561C204.932 91.3937 205.566 91.5625 206.334 91.5625ZM220.764 80.4545V82.0881H214.263V80.4545H220.764ZM216.158 77.4489H218.085V89.4062C218.085 89.9508 218.164 90.3591 218.322 90.6314C218.485 90.8982 218.692 91.0779 218.943 91.1705C219.199 91.2576 219.468 91.3011 219.751 91.3011C219.964 91.3011 220.138 91.2902 220.274 91.2685C220.41 91.2412 220.519 91.2195 220.601 91.2031L220.993 92.9347C220.862 92.9837 220.68 93.0327 220.446 93.0817C220.211 93.1361 219.915 93.1634 219.555 93.1634C219.011 93.1634 218.477 93.0463 217.954 92.8121C217.437 92.578 217.007 92.2214 216.664 91.7422C216.326 91.263 216.158 90.6586 216.158 89.929V77.4489ZM223.664 93V80.4545H225.591V93H223.664ZM224.644 78.3636C224.268 78.3636 223.944 78.2357 223.672 77.9798C223.405 77.7238 223.272 77.4162 223.272 77.0568C223.272 76.6974 223.405 76.3898 223.672 76.1339C223.944 75.878 224.268 75.75 224.644 75.75C225.019 75.75 225.341 75.878 225.608 76.1339C225.88 76.3898 226.016 76.6974 226.016 77.0568C226.016 77.4162 225.88 77.7238 225.608 77.9798C225.341 78.2357 225.019 78.3636 224.644 78.3636ZM234.218 93.2614C233.086 93.2614 232.092 92.9918 231.237 92.4528C230.388 91.9137 229.723 91.1596 229.244 90.1903C228.77 89.2211 228.534 88.0885 228.534 86.7926C228.534 85.4858 228.77 84.3451 229.244 83.3704C229.723 82.3957 230.388 81.6388 231.237 81.0998C232.092 80.5607 233.086 80.2912 234.218 80.2912C235.351 80.2912 236.342 80.5607 237.191 81.0998C238.046 81.6388 238.71 82.3957 239.184 83.3704C239.663 84.3451 239.903 85.4858 239.903 86.7926C239.903 88.0885 239.663 89.2211 239.184 90.1903C238.71 91.1596 238.046 91.9137 237.191 92.4528C236.342 92.9918 235.351 93.2614 234.218 93.2614ZM234.218 91.5298C235.079 91.5298 235.786 91.3093 236.342 90.8683C236.897 90.4272 237.308 89.8473 237.575 89.1286C237.842 88.4098 237.975 87.6312 237.975 86.7926C237.975 85.9541 237.842 85.1727 237.575 84.4485C237.308 83.7243 236.897 83.139 236.342 82.6925C235.786 82.246 235.079 82.0227 234.218 82.0227C233.358 82.0227 232.65 82.246 232.095 82.6925C231.539 83.139 231.128 83.7243 230.861 84.4485C230.595 85.1727 230.461 85.9541 230.461 86.7926C230.461 87.6312 230.595 88.4098 230.861 89.1286C231.128 89.8473 231.539 90.4272 232.095 90.8683C232.65 91.3093 233.358 91.5298 234.218 91.5298ZM244.773 85.4531V93H242.845V80.4545H244.707V82.4148H244.871C245.165 81.7777 245.611 81.2659 246.21 80.8793C246.809 80.4872 247.582 80.2912 248.53 80.2912C249.379 80.2912 250.123 80.4654 250.76 80.8139C251.397 81.157 251.892 81.6797 252.246 82.3821C252.6 83.0791 252.777 83.9612 252.777 85.0284V93H250.85V85.1591C250.85 84.1735 250.594 83.4058 250.082 82.8558C249.57 82.3004 248.868 82.0227 247.975 82.0227C247.359 82.0227 246.809 82.1561 246.325 82.4229C245.845 82.6897 245.467 83.0791 245.189 83.5909C244.912 84.1027 244.773 84.7235 244.773 85.4531ZM262.115 78.0696V76.2727H274.66V78.0696H269.4V93H267.375V78.0696H262.115ZM280.966 93.2614C279.757 93.2614 278.714 92.9946 277.837 92.4609C276.966 91.9219 276.294 91.1705 275.82 90.2067C275.352 89.2375 275.118 88.1103 275.118 86.8253C275.118 85.5402 275.352 84.4077 275.82 83.4276C276.294 82.442 276.953 81.6742 277.797 81.1243C278.646 80.5689 279.637 80.2912 280.77 80.2912C281.423 80.2912 282.068 80.4001 282.705 80.6179C283.342 80.8357 283.922 81.1896 284.445 81.6797C284.968 82.1643 285.384 82.8068 285.695 83.6072C286.005 84.4077 286.16 85.3932 286.16 86.5639V87.3807H276.49V85.7145H284.2C284.2 85.0066 284.058 84.375 283.775 83.8196C283.498 83.2642 283.1 82.8259 282.583 82.5046C282.071 82.1834 281.467 82.0227 280.77 82.0227C280.002 82.0227 279.337 82.2133 278.777 82.5945C278.221 82.9702 277.794 83.4602 277.494 84.0646C277.195 84.669 277.045 85.317 277.045 86.0085V87.1193C277.045 88.0668 277.208 88.8699 277.535 89.5288C277.867 90.1822 278.327 90.6804 278.915 91.0234C279.504 91.361 280.187 91.5298 280.966 91.5298C281.472 91.5298 281.929 91.459 282.338 91.3175C282.752 91.1705 283.108 90.9527 283.408 90.6641C283.707 90.37 283.939 90.0052 284.102 89.5696L285.964 90.0923C285.768 90.724 285.439 91.2794 284.976 91.7585C284.513 92.2322 283.941 92.6025 283.261 92.8693C282.58 93.1307 281.815 93.2614 280.966 93.2614ZM294.189 93.2614C293.013 93.2614 292 92.9837 291.151 92.4283C290.301 91.8729 289.648 91.1078 289.19 90.1332C288.733 89.1585 288.504 88.045 288.504 86.7926C288.504 85.5185 288.738 84.3941 289.207 83.4194C289.68 82.4393 290.339 81.6742 291.183 81.1243C292.033 80.5689 293.024 80.2912 294.156 80.2912C295.038 80.2912 295.833 80.4545 296.541 80.7812C297.249 81.108 297.829 81.5653 298.281 82.1534C298.733 82.7415 299.013 83.4276 299.122 84.2116H297.195C297.048 83.6399 296.721 83.1335 296.214 82.6925C295.714 82.246 295.038 82.0227 294.189 82.0227C293.438 82.0227 292.779 82.2187 292.212 82.6108C291.652 82.9974 291.213 83.5446 290.897 84.2525C290.587 84.9549 290.432 85.7798 290.432 86.7273C290.432 87.6965 290.584 88.5405 290.889 89.2592C291.2 89.978 291.635 90.5361 292.196 90.9336C292.762 91.3311 293.427 91.5298 294.189 91.5298C294.69 91.5298 295.145 91.4427 295.553 91.2685C295.961 91.0942 296.307 90.8438 296.59 90.517C296.873 90.1903 297.075 89.7983 297.195 89.3409H299.122C299.013 90.0814 298.744 90.7485 298.314 91.342C297.889 91.93 297.325 92.3983 296.623 92.7468C295.926 93.0898 295.115 93.2614 294.189 93.2614ZM303.868 85.4531V93H301.94V76.2727H303.868V82.4148H304.031C304.325 81.7668 304.766 81.2522 305.354 80.8711C305.948 80.4845 306.737 80.2912 307.723 80.2912C308.578 80.2912 309.326 80.4627 309.969 80.8058C310.611 81.1433 311.109 81.6634 311.463 82.3658C311.823 83.0627 312.002 83.9503 312.002 85.0284V93H310.075V85.1591C310.075 84.1626 309.816 83.3922 309.299 82.8477C308.787 82.2977 308.077 82.0227 307.167 82.0227C306.536 82.0227 305.969 82.1561 305.468 82.4229C304.973 82.6897 304.581 83.0791 304.292 83.5909C304.009 84.1027 303.868 84.7235 303.868 85.4531ZM317.456 85.4531V93H315.529V80.4545H317.391V82.4148H317.554C317.848 81.7777 318.295 81.2659 318.894 80.8793C319.493 80.4872 320.266 80.2912 321.214 80.2912C322.063 80.2912 322.806 80.4654 323.443 80.8139C324.08 81.157 324.576 81.6797 324.93 82.3821C325.284 83.0791 325.461 83.9612 325.461 85.0284V93H323.533V85.1591C323.533 84.1735 323.277 83.4058 322.765 82.8558C322.254 82.3004 321.551 82.0227 320.658 82.0227C320.043 82.0227 319.493 82.1561 319.008 82.4229C318.529 82.6897 318.151 83.0791 317.873 83.5909C317.595 84.1027 317.456 84.7235 317.456 85.4531ZM334.08 93.2614C332.947 93.2614 331.953 92.9918 331.098 92.4528C330.249 91.9137 329.585 91.1596 329.105 90.1903C328.632 89.2211 328.395 88.0885 328.395 86.7926C328.395 85.4858 328.632 84.3451 329.105 83.3704C329.585 82.3957 330.249 81.6388 331.098 81.0998C331.953 80.5607 332.947 80.2912 334.08 80.2912C335.212 80.2912 336.203 80.5607 337.053 81.0998C337.907 81.6388 338.572 82.3957 339.045 83.3704C339.525 84.3451 339.764 85.4858 339.764 86.7926C339.764 88.0885 339.525 89.2211 339.045 90.1903C338.572 91.1596 337.907 91.9137 337.053 92.4528C336.203 92.9918 335.212 93.2614 334.08 93.2614ZM334.08 91.5298C334.94 91.5298 335.648 91.3093 336.203 90.8683C336.759 90.4272 337.17 89.8473 337.436 89.1286C337.703 88.4098 337.837 87.6312 337.837 86.7926C337.837 85.9541 337.703 85.1727 337.436 84.4485C337.17 83.7243 336.759 83.139 336.203 82.6925C335.648 82.246 334.94 82.0227 334.08 82.0227C333.219 82.0227 332.511 82.246 331.956 82.6925C331.401 83.139 330.989 83.7243 330.723 84.4485C330.456 85.1727 330.322 85.9541 330.322 86.7926C330.322 87.6312 330.456 88.4098 330.723 89.1286C330.989 89.8473 331.401 90.4272 331.956 90.8683C332.511 91.3093 333.219 91.5298 334.08 91.5298ZM344.634 76.2727V93H342.707V76.2727H344.634ZM353.261 93.2614C352.129 93.2614 351.135 92.9918 350.28 92.4528C349.431 91.9137 348.766 91.1596 348.287 90.1903C347.813 89.2211 347.577 88.0885 347.577 86.7926C347.577 85.4858 347.813 84.3451 348.287 83.3704C348.766 82.3957 349.431 81.6388 350.28 81.0998C351.135 80.5607 352.129 80.2912 353.261 80.2912C354.394 80.2912 355.385 80.5607 356.234 81.0998C357.089 81.6388 357.753 82.3957 358.227 83.3704C358.706 84.3451 358.946 85.4858 358.946 86.7926C358.946 88.0885 358.706 89.2211 358.227 90.1903C357.753 91.1596 357.089 91.9137 356.234 92.4528C355.385 92.9918 354.394 93.2614 353.261 93.2614ZM353.261 91.5298C354.122 91.5298 354.829 91.3093 355.385 90.8683C355.94 90.4272 356.351 89.8473 356.618 89.1286C356.885 88.4098 357.018 87.6312 357.018 86.7926C357.018 85.9541 356.885 85.1727 356.618 84.4485C356.351 83.7243 355.94 83.139 355.385 82.6925C354.829 82.246 354.122 82.0227 353.261 82.0227C352.401 82.0227 351.693 82.246 351.138 82.6925C350.582 83.139 350.171 83.7243 349.904 84.4485C349.637 85.1727 349.504 85.9541 349.504 86.7926C349.504 87.6312 349.637 88.4098 349.904 89.1286C350.171 89.8473 350.582 90.4272 351.138 90.8683C351.693 91.3093 352.401 91.5298 353.261 91.5298ZM366.952 97.9659C366.021 97.9659 365.221 97.8461 364.551 97.6065C363.881 97.3724 363.323 97.062 362.877 96.6754C362.435 96.2943 362.084 95.8859 361.823 95.4503L363.358 94.3722C363.533 94.6009 363.753 94.8622 364.02 95.1562C364.287 95.4557 364.652 95.7144 365.114 95.9322C365.583 96.1554 366.195 96.267 366.952 96.267C367.965 96.267 368.801 96.022 369.46 95.532C370.118 95.0419 370.448 94.2741 370.448 93.2287V90.6804H370.285C370.143 90.9091 369.941 91.1922 369.68 91.5298C369.424 91.862 369.054 92.1587 368.569 92.4201C368.09 92.676 367.442 92.804 366.625 92.804C365.613 92.804 364.703 92.5644 363.897 92.0852C363.097 91.6061 362.463 90.9091 361.994 89.9943C361.532 89.0795 361.3 87.9687 361.3 86.6619C361.3 85.3769 361.526 84.2579 361.978 83.305C362.43 82.3467 363.059 81.6062 363.865 81.0835C364.671 80.5553 365.602 80.2912 366.658 80.2912C367.475 80.2912 368.123 80.4273 368.602 80.6996C369.087 80.9664 369.457 81.2713 369.713 81.6143C369.974 81.9519 370.176 82.2296 370.317 82.4474H370.513V80.4545H372.375V93.3594C372.375 94.4375 372.13 95.3142 371.64 95.9893C371.156 96.67 370.502 97.1682 369.68 97.484C368.863 97.8053 367.954 97.9659 366.952 97.9659ZM366.887 91.0724C367.66 91.0724 368.313 90.8955 368.847 90.5415C369.381 90.1876 369.786 89.6785 370.064 89.0142C370.342 88.3499 370.481 87.5549 370.481 86.6293C370.481 85.7254 370.344 84.9277 370.072 84.2362C369.8 83.5446 369.397 83.0028 368.863 82.6108C368.33 82.2187 367.671 82.0227 366.887 82.0227C366.07 82.0227 365.389 82.2296 364.845 82.6435C364.306 83.0573 363.9 83.6127 363.628 84.3097C363.361 85.0066 363.228 85.7798 363.228 86.6293C363.228 87.5005 363.364 88.271 363.636 88.9407C363.914 89.605 364.322 90.1277 364.861 90.5089C365.406 90.8846 366.081 91.0724 366.887 91.0724ZM377.145 97.7045C376.819 97.7045 376.527 97.6773 376.271 97.6229C376.015 97.5739 375.839 97.5249 375.741 97.4759L376.231 95.777C376.699 95.8968 377.113 95.9403 377.472 95.9077C377.831 95.875 378.15 95.7144 378.428 95.4258C378.711 95.1426 378.969 94.6825 379.204 94.0455L379.563 93.0653L374.924 80.4545H377.015L380.478 90.4517H380.608L384.071 80.4545H386.162L380.837 94.8295C380.598 95.4775 380.301 96.0138 379.947 96.4386C379.593 96.8687 379.182 97.1873 378.714 97.3942C378.251 97.6011 377.728 97.7045 377.145 97.7045ZM402.363 83.7379V85.5348H395.045V83.7379H402.363ZM425.945 81.5H423.919C423.799 80.9174 423.59 80.4055 423.29 79.9645C422.996 79.5234 422.637 79.1532 422.212 78.8537C421.793 78.5488 421.327 78.3201 420.816 78.1676C420.304 78.0152 419.77 77.9389 419.215 77.9389C418.202 77.9389 417.284 78.1948 416.462 78.7067C415.645 79.2185 414.995 79.9727 414.51 80.9691C414.031 81.9656 413.791 83.188 413.791 84.6364C413.791 86.0848 414.031 87.3072 414.51 88.3036C414.995 89.3001 415.645 90.0542 416.462 90.5661C417.284 91.0779 418.202 91.3338 419.215 91.3338C419.77 91.3338 420.304 91.2576 420.816 91.1051C421.327 90.9527 421.793 90.7267 422.212 90.4272C422.637 90.1223 422.996 89.7493 423.29 89.3082C423.59 88.8617 423.799 88.3499 423.919 87.7727H425.945C425.792 88.6276 425.515 89.3926 425.112 90.0678C424.709 90.743 424.208 91.3175 423.609 91.7912C423.01 92.2595 422.337 92.6161 421.591 92.8612C420.851 93.1062 420.059 93.2287 419.215 93.2287C417.788 93.2287 416.519 92.8802 415.409 92.1832C414.298 91.4863 413.424 90.4953 412.787 89.2102C412.15 87.9252 411.831 86.4006 411.831 84.6364C411.831 82.8722 412.15 81.3475 412.787 80.0625C413.424 78.7775 414.298 77.7865 415.409 77.0895C416.519 76.3925 417.788 76.044 419.215 76.044C420.059 76.044 420.851 76.1665 421.591 76.4116C422.337 76.6566 423.01 77.016 423.609 77.4897C424.208 77.958 424.709 78.5297 425.112 79.2049C425.515 79.8746 425.792 80.6397 425.945 81.5ZM434.053 93.2614C432.921 93.2614 431.927 92.9918 431.072 92.4528C430.223 91.9137 429.558 91.1596 429.079 90.1903C428.605 89.2211 428.369 88.0885 428.369 86.7926C428.369 85.4858 428.605 84.3451 429.079 83.3704C429.558 82.3957 430.223 81.6388 431.072 81.0998C431.927 80.5607 432.921 80.2912 434.053 80.2912C435.186 80.2912 436.177 80.5607 437.026 81.0998C437.881 81.6388 438.545 82.3957 439.019 83.3704C439.498 84.3451 439.738 85.4858 439.738 86.7926C439.738 88.0885 439.498 89.2211 439.019 90.1903C438.545 91.1596 437.881 91.9137 437.026 92.4528C436.177 92.9918 435.186 93.2614 434.053 93.2614ZM434.053 91.5298C434.914 91.5298 435.621 91.3093 436.177 90.8683C436.732 90.4272 437.143 89.8473 437.41 89.1286C437.677 88.4098 437.81 87.6312 437.81 86.7926C437.81 85.9541 437.677 85.1727 437.41 84.4485C437.143 83.7243 436.732 83.139 436.177 82.6925C435.621 82.246 434.914 82.0227 434.053 82.0227C433.193 82.0227 432.485 82.246 431.93 82.6925C431.374 83.139 430.963 83.7243 430.696 84.4485C430.429 85.1727 430.296 85.9541 430.296 86.7926C430.296 87.6312 430.429 88.4098 430.696 89.1286C430.963 89.8473 431.374 90.4272 431.93 90.8683C432.485 91.3093 433.193 91.5298 434.053 91.5298ZM444.608 85.4531V93H442.68V80.4545H444.542V82.4148H444.706C445 81.7777 445.446 81.2659 446.045 80.8793C446.644 80.4872 447.417 80.2912 448.365 80.2912C449.214 80.2912 449.958 80.4654 450.595 80.8139C451.232 81.157 451.727 81.6797 452.081 82.3821C452.435 83.0791 452.612 83.9612 452.612 85.0284V93H450.684V85.1591C450.684 84.1735 450.429 83.4058 449.917 82.8558C449.405 82.3004 448.702 82.0227 447.809 82.0227C447.194 82.0227 446.644 82.1561 446.16 82.4229C445.68 82.6897 445.302 83.0791 445.024 83.5909C444.747 84.1027 444.608 84.7235 444.608 85.4531ZM465.021 83.2642L463.289 83.7543C463.18 83.4657 463.02 83.1853 462.807 82.913C462.6 82.6353 462.317 82.4066 461.958 82.2269C461.598 82.0472 461.138 81.9574 460.578 81.9574C459.81 81.9574 459.17 82.1344 458.658 82.4883C458.152 82.8368 457.899 83.2805 457.899 83.8196C457.899 84.2988 458.073 84.6772 458.421 84.9549C458.77 85.2326 459.314 85.464 460.055 85.6491L461.917 86.1065C463.039 86.3788 463.874 86.7953 464.424 87.3562C464.974 87.9116 465.249 88.6276 465.249 89.5043C465.249 90.223 465.042 90.8655 464.629 91.4318C464.22 91.9981 463.649 92.4446 462.913 92.7713C462.178 93.098 461.323 93.2614 460.349 93.2614C459.069 93.2614 458.01 92.9837 457.172 92.4283C456.333 91.8729 455.802 91.0616 455.579 89.9943L457.408 89.5369C457.583 90.2121 457.912 90.7185 458.397 91.0561C458.887 91.3937 459.527 91.5625 460.316 91.5625C461.215 91.5625 461.928 91.3719 462.456 90.9908C462.99 90.6042 463.256 90.1413 463.256 89.6023C463.256 89.1667 463.104 88.8018 462.799 88.5078C462.494 88.2083 462.026 87.9851 461.394 87.8381L459.303 87.348C458.154 87.0758 457.31 86.6538 456.771 86.082C456.238 85.5049 455.971 84.7834 455.971 83.9176C455.971 83.2098 456.17 82.5836 456.567 82.0391C456.97 81.4946 457.517 81.0671 458.209 80.7567C458.906 80.4464 459.695 80.2912 460.578 80.2912C461.819 80.2912 462.794 80.5634 463.502 81.108C464.215 81.6525 464.721 82.3712 465.021 83.2642ZM476.057 87.8707V80.4545H477.985V93H476.057V90.8764H475.926C475.632 91.5135 475.175 92.0553 474.554 92.5018C473.934 92.9428 473.15 93.1634 472.202 93.1634C471.418 93.1634 470.721 92.9918 470.111 92.6488C469.501 92.3003 469.022 91.7776 468.674 91.0806C468.325 90.3782 468.151 89.4934 468.151 88.4261V80.4545H470.078V88.2955C470.078 89.2102 470.334 89.9399 470.846 90.4844C471.364 91.0289 472.022 91.3011 472.823 91.3011C473.302 91.3011 473.789 91.1786 474.285 90.9336C474.786 90.6886 475.205 90.3129 475.543 89.8065C475.886 89.3001 476.057 88.6548 476.057 87.8707ZM483.443 76.2727V93H481.515V76.2727H483.443ZM492.429 80.4545V82.0881H485.928V80.4545H492.429ZM487.823 77.4489H489.75V89.4062C489.75 89.9508 489.829 90.3591 489.987 90.6314C490.15 90.8982 490.357 91.0779 490.608 91.1705C490.864 91.2576 491.133 91.3011 491.416 91.3011C491.629 91.3011 491.803 91.2902 491.939 91.2685C492.075 91.2412 492.184 91.2195 492.266 91.2031L492.658 92.9347C492.527 92.9837 492.345 93.0327 492.111 93.0817C491.876 93.1361 491.58 93.1634 491.22 93.1634C490.676 93.1634 490.142 93.0463 489.619 92.8121C489.102 92.578 488.672 92.2214 488.329 91.7422C487.991 91.263 487.823 90.6586 487.823 89.929V77.4489ZM499.02 93.294C498.225 93.294 497.504 93.1443 496.856 92.8448C496.208 92.5399 495.693 92.1016 495.312 91.5298C494.931 90.9527 494.741 90.2557 494.741 89.4389C494.741 88.7202 494.882 88.1375 495.165 87.6911C495.448 87.2391 495.827 86.8852 496.301 86.6293C496.774 86.3733 497.297 86.1828 497.869 86.0575C498.446 85.9268 499.026 85.8234 499.608 85.7472C500.371 85.6491 500.989 85.5756 501.463 85.5266C501.942 85.4722 502.29 85.3823 502.508 85.2571C502.731 85.1319 502.843 84.9141 502.843 84.6037V84.5384C502.843 83.7325 502.622 83.1063 502.181 82.6598C501.746 82.2133 501.084 81.9901 500.197 81.9901C499.276 81.9901 498.555 82.1915 498.032 82.5945C497.509 82.9974 497.142 83.4276 496.93 83.8849L495.1 83.2315C495.427 82.4692 495.862 81.8757 496.407 81.451C496.957 81.0208 497.556 80.7214 498.204 80.5526C498.857 80.3783 499.5 80.2912 500.131 80.2912C500.534 80.2912 500.997 80.3402 501.52 80.4382C502.048 80.5308 502.557 80.7241 503.047 81.0181C503.543 81.3121 503.954 81.7559 504.28 82.3494C504.607 82.9429 504.77 83.7379 504.77 84.7344V93H502.843V91.3011H502.745C502.614 91.5734 502.396 91.8647 502.091 92.1751C501.787 92.4854 501.381 92.7495 500.874 92.9673C500.368 93.1851 499.75 93.294 499.02 93.294ZM499.314 91.5625C500.077 91.5625 500.719 91.4128 501.242 91.1133C501.77 90.8138 502.168 90.4272 502.434 89.9535C502.707 89.4798 502.843 88.9815 502.843 88.4588V86.6946C502.761 86.7926 502.581 86.8825 502.304 86.9641C502.032 87.0404 501.716 87.1084 501.356 87.1683C501.002 87.2228 500.657 87.2718 500.319 87.3153C499.987 87.3535 499.717 87.3861 499.51 87.4134C499.01 87.4787 498.541 87.5849 498.106 87.7319C497.675 87.8735 497.327 88.0885 497.06 88.3771C496.799 88.6603 496.668 89.0469 496.668 89.5369C496.668 90.2067 496.916 90.7131 497.411 91.0561C497.912 91.3937 498.547 91.5625 499.314 91.5625ZM510.216 85.4531V93H508.289V80.4545H510.151V82.4148H510.314C510.608 81.7777 511.055 81.2659 511.654 80.8793C512.253 80.4872 513.026 80.2912 513.973 80.2912C514.823 80.2912 515.566 80.4654 516.203 80.8139C516.84 81.157 517.336 81.6797 517.69 82.3821C518.043 83.0791 518.22 83.9612 518.22 85.0284V93H516.293V85.1591C516.293 84.1735 516.037 83.4058 515.525 82.8558C515.013 82.3004 514.311 82.0227 513.418 82.0227C512.803 82.0227 512.253 82.1561 511.768 82.4229C511.289 82.6897 510.91 83.0791 510.633 83.5909C510.355 84.1027 510.216 84.7235 510.216 85.4531ZM527.199 80.4545V82.0881H520.697V80.4545H527.199ZM522.592 77.4489H524.52V89.4062C524.52 89.9508 524.599 90.3591 524.757 90.6314C524.92 90.8982 525.127 91.0779 525.377 91.1705C525.633 91.2576 525.903 91.3011 526.186 91.3011C526.398 91.3011 526.573 91.2902 526.709 91.2685C526.845 91.2412 526.954 91.2195 527.035 91.2031L527.427 92.9347C527.297 92.9837 527.114 93.0327 526.88 93.0817C526.646 93.1361 526.349 93.1634 525.99 93.1634C525.445 93.1634 524.912 93.0463 524.389 92.8121C523.872 92.578 523.442 92.2214 523.099 91.7422C522.761 91.263 522.592 90.6586 522.592 89.929V77.4489Z" fill="#0A2149"/>
<circle cx="55" cy="55" r="55" fill="#0A2149"/>
<path d="M44.8182 23.1818L50.9545 72.4091H51.5L74 23.1818H95.4091L60.7727 93H34.8636L23.4091 23.1818H44.8182Z" fill="white"/>
</svg>
