<svg width="582" height="117" viewBox="0 0 582 117" fill="none" xmlns="http://www.w3.org/2000/svg">
<path d="M118.166 26.3242H133.904L144.861 61.3535L155.652 26.3242H170.926L152.863 75H136.561L118.166 26.3242ZM176.637 26.3242H190.15V35.5215H176.637V26.3242ZM176.637 39.7383H190.15V75H176.637V39.7383ZM198.783 39.7383H211.367V45.4824C213.249 43.1361 215.152 41.4648 217.078 40.4688C219.004 39.4505 221.35 38.9414 224.117 38.9414C227.858 38.9414 230.78 40.0592 232.883 42.2949C235.008 44.5085 236.07 47.9395 236.07 52.5879V75H222.49V55.6094C222.49 53.3958 222.081 51.8353 221.262 50.9277C220.443 49.998 219.292 49.5332 217.809 49.5332C216.171 49.5332 214.842 50.153 213.824 51.3926C212.806 52.6322 212.297 54.8568 212.297 58.0664V75H198.783V39.7383ZM270.436 61.2207L283.285 62.6816C282.577 65.36 281.415 67.6842 279.799 69.6543C278.183 71.6022 276.113 73.1185 273.59 74.2031C271.089 75.2878 267.901 75.8301 264.027 75.8301C260.286 75.8301 257.165 75.487 254.664 74.8008C252.185 74.0924 250.049 72.9635 248.256 71.4141C246.463 69.8424 245.057 68.0052 244.039 65.9023C243.021 63.7995 242.512 61.0104 242.512 57.5352C242.512 53.9049 243.132 50.8835 244.371 48.4707C245.279 46.6999 246.518 45.1172 248.09 43.7227C249.661 42.306 251.277 41.2546 252.938 40.5684C255.572 39.4837 258.947 38.9414 263.064 38.9414C268.82 38.9414 273.202 39.9707 276.213 42.0293C279.245 44.0879 281.37 47.0983 282.588 51.0605L269.871 52.7539C269.473 51.2487 268.742 50.1198 267.68 49.3672C266.639 48.5924 265.234 48.2051 263.463 48.2051C261.227 48.2051 259.412 49.013 258.018 50.6289C256.645 52.2227 255.959 54.6465 255.959 57.9004C255.959 60.8001 256.645 63.0026 258.018 64.5078C259.39 66.013 261.139 66.7656 263.264 66.7656C265.035 66.7656 266.518 66.3118 267.713 65.4043C268.93 64.4967 269.838 63.1022 270.436 61.2207ZM328.641 60.7227H301.547C301.79 62.8919 302.377 64.5078 303.307 65.5703C304.613 67.0977 306.317 67.8613 308.42 67.8613C309.748 67.8613 311.01 67.5293 312.205 66.8652C312.936 66.4447 313.721 65.7031 314.562 64.6406L327.877 65.8691C325.84 69.4108 323.383 71.9564 320.506 73.5059C317.628 75.0332 313.5 75.7969 308.121 75.7969C303.451 75.7969 299.776 75.1439 297.098 73.8379C294.419 72.5098 292.195 70.418 290.424 67.5625C288.675 64.6849 287.801 61.3092 287.801 57.4355C287.801 51.9238 289.561 47.4635 293.08 44.0547C296.622 40.6458 301.503 38.9414 307.723 38.9414C312.77 38.9414 316.754 39.7051 319.676 41.2324C322.598 42.7598 324.822 44.9733 326.35 47.873C327.877 50.7728 328.641 54.5469 328.641 59.1953V60.7227ZM314.895 54.248C314.629 51.6361 313.921 49.7656 312.77 48.6367C311.641 47.5078 310.146 46.9434 308.287 46.9434C306.14 46.9434 304.424 47.7956 303.141 49.5C302.322 50.5625 301.801 52.1452 301.58 54.248H314.895ZM334.85 39.7383H347.434V45.4824C349.315 43.1361 351.219 41.4648 353.145 40.4688C355.07 39.4505 357.417 38.9414 360.184 38.9414C363.924 38.9414 366.846 40.0592 368.949 42.2949C371.074 44.5085 372.137 47.9395 372.137 52.5879V75H358.557V55.6094C358.557 53.3958 358.147 51.8353 357.328 50.9277C356.509 49.998 355.358 49.5332 353.875 49.5332C352.237 49.5332 350.909 50.153 349.891 51.3926C348.872 52.6322 348.363 54.8568 348.363 58.0664V75H334.85V39.7383ZM396.508 26.3242V39.7383H403.945V49.5996H396.508V62.1172C396.508 63.6224 396.652 64.6185 396.939 65.1055C397.382 65.8581 398.157 66.2344 399.264 66.2344C400.26 66.2344 401.654 65.9466 403.447 65.3711L404.443 74.7012C401.101 75.4316 397.98 75.7969 395.08 75.7969C391.715 75.7969 389.236 75.3652 387.643 74.502C386.049 73.6387 384.865 72.3327 384.09 70.584C383.337 68.8132 382.961 65.9577 382.961 62.0176V49.5996H377.98V39.7383H382.961V33.2637L396.508 26.3242ZM443.723 55.1113L456.904 59.0957C456.019 62.7923 454.624 65.8802 452.721 68.3594C450.817 70.8385 448.449 72.709 445.615 73.9707C442.804 75.2324 439.218 75.8633 434.857 75.8633C429.567 75.8633 425.24 75.0996 421.875 73.5723C418.533 72.0228 415.644 69.3112 413.209 65.4375C410.774 61.5638 409.557 56.6055 409.557 50.5625C409.557 42.5052 411.693 36.3184 415.965 32.002C420.259 27.6634 426.324 25.4941 434.16 25.4941C440.292 25.4941 445.106 26.7337 448.604 29.2129C452.123 31.6921 454.735 35.4993 456.439 40.6348L443.158 43.5898C442.693 42.1068 442.206 41.0221 441.697 40.3359C440.856 39.1849 439.827 38.2995 438.609 37.6797C437.392 37.0599 436.031 36.75 434.525 36.75C431.117 36.75 428.505 38.1224 426.689 40.8672C425.317 42.9036 424.631 46.1022 424.631 50.4629C424.631 55.8639 425.45 59.5716 427.088 61.5859C428.726 63.5781 431.028 64.5742 433.994 64.5742C436.872 64.5742 439.041 63.7663 440.502 62.1504C441.985 60.5345 443.059 58.1882 443.723 55.1113ZM461.686 57.4688C461.686 52.0898 463.501 47.6628 467.131 44.1875C470.761 40.6901 475.664 38.9414 481.84 38.9414C488.901 38.9414 494.236 40.9889 497.844 45.084C500.743 48.3822 502.193 52.444 502.193 57.2695C502.193 62.6927 500.389 67.1419 496.781 70.6172C493.195 74.0703 488.226 75.7969 481.873 75.7969C476.206 75.7969 471.624 74.3581 468.127 71.4805C463.833 67.9167 461.686 63.2461 461.686 57.4688ZM475.232 57.4355C475.232 60.5788 475.863 62.903 477.125 64.4082C478.409 65.9134 480.014 66.666 481.939 66.666C483.887 66.666 485.481 65.9245 486.721 64.4414C487.982 62.9583 488.613 60.5788 488.613 57.3027C488.613 54.248 487.982 51.9792 486.721 50.4961C485.459 48.9909 483.898 48.2383 482.039 48.2383C480.069 48.2383 478.442 49.002 477.158 50.5293C475.874 52.0345 475.232 54.3366 475.232 57.4355ZM508.834 39.7383H521.484V45.5156C522.702 43.0143 523.952 41.2988 525.236 40.3691C526.542 39.4173 528.147 38.9414 530.051 38.9414C532.043 38.9414 534.223 39.5612 536.592 40.8008L532.408 50.4297C530.814 49.7656 529.553 49.4336 528.623 49.4336C526.852 49.4336 525.48 50.1641 524.506 51.625C523.111 53.6836 522.414 57.5352 522.414 63.1797V75H508.834V39.7383ZM579.191 60.7227H552.098C552.341 62.8919 552.928 64.5078 553.857 65.5703C555.163 67.0977 556.868 67.8613 558.971 67.8613C560.299 67.8613 561.561 67.5293 562.756 66.8652C563.486 66.4447 564.272 65.7031 565.113 64.6406L578.428 65.8691C576.391 69.4108 573.934 71.9564 571.057 73.5059C568.179 75.0332 564.051 75.7969 558.672 75.7969C554.001 75.7969 550.327 75.1439 547.648 73.8379C544.97 72.5098 542.745 70.418 540.975 67.5625C539.226 64.6849 538.352 61.3092 538.352 57.4355C538.352 51.9238 540.111 47.4635 543.631 44.0547C547.173 40.6458 552.053 38.9414 558.273 38.9414C563.32 38.9414 567.305 39.7051 570.227 41.2324C573.148 42.7598 575.373 44.9733 576.9 47.873C578.428 50.7728 579.191 54.5469 579.191 59.1953V60.7227ZM565.445 54.248C565.18 51.6361 564.471 49.7656 563.32 48.6367C562.191 47.5078 560.697 46.9434 558.838 46.9434C556.691 46.9434 554.975 47.7956 553.691 49.5C552.872 50.5625 552.352 52.1452 552.131 54.248H565.445Z" fill="#0A2149"/>
<path d="M134.68 81.2727V98H131.65V81.2727H134.68ZM140.787 90.6491V98H137.831V85.4545H140.657V87.5863H140.804C141.092 86.8839 141.552 86.3258 142.184 85.9119C142.821 85.4981 143.608 85.2912 144.544 85.2912C145.41 85.2912 146.164 85.4763 146.807 85.8466C147.455 86.2169 147.956 86.7532 148.31 87.4556C148.669 88.158 148.846 89.0102 148.841 90.0121V98H145.884V90.4695C145.884 89.6309 145.666 88.9748 145.231 88.5011C144.8 88.0273 144.204 87.7905 143.442 87.7905C142.925 87.7905 142.464 87.9048 142.062 88.1335C141.664 88.3568 141.351 88.6808 141.122 89.1055C140.899 89.5302 140.787 90.0447 140.787 90.6491ZM158.201 85.4545V87.7415H150.785V85.4545H158.201ZM152.639 98V84.2702C152.639 83.4263 152.813 82.7238 153.161 82.163C153.515 81.6022 153.989 81.1829 154.582 80.9052C155.176 80.6275 155.835 80.4886 156.559 80.4886C157.071 80.4886 157.526 80.5295 157.923 80.6112C158.321 80.6928 158.615 80.7663 158.805 80.8317L158.217 83.1186C158.092 83.0805 157.934 83.0424 157.743 83.0043C157.553 82.9607 157.34 82.9389 157.106 82.9389C156.556 82.9389 156.167 83.0723 155.938 83.3391C155.715 83.6005 155.603 83.9762 155.603 84.4663V98H152.639ZM165.517 98.245C164.292 98.245 163.23 97.9755 162.331 97.4364C161.433 96.8974 160.736 96.1432 160.241 95.174C159.751 94.2048 159.506 93.0722 159.506 91.7763C159.506 90.4804 159.751 89.3451 160.241 88.3704C160.736 87.3957 161.433 86.6388 162.331 86.0998C163.23 85.5607 164.292 85.2912 165.517 85.2912C166.742 85.2912 167.804 85.5607 168.702 86.0998C169.601 86.6388 170.295 87.3957 170.785 88.3704C171.28 89.3451 171.528 90.4804 171.528 91.7763C171.528 93.0722 171.28 94.2048 170.785 95.174C170.295 96.1432 169.601 96.8974 168.702 97.4364C167.804 97.9755 166.742 98.245 165.517 98.245ZM165.533 95.8764C166.198 95.8764 166.753 95.694 167.199 95.3292C167.646 94.9589 167.978 94.4634 168.196 93.8427C168.419 93.2219 168.531 92.5304 168.531 91.7681C168.531 91.0004 168.419 90.3061 168.196 89.6854C167.978 89.0592 167.646 88.561 167.199 88.1907C166.753 87.8204 166.198 87.6353 165.533 87.6353C164.853 87.6353 164.286 87.8204 163.834 88.1907C163.388 88.561 163.053 89.0592 162.83 89.6854C162.612 90.3061 162.503 91.0004 162.503 91.7681C162.503 92.5304 162.612 93.2219 162.83 93.8427C163.053 94.4634 163.388 94.9589 163.834 95.3292C164.286 95.694 164.853 95.8764 165.533 95.8764ZM174.038 98V85.4545H176.905V87.5455H177.035C177.264 86.8213 177.656 86.2631 178.211 85.8711C178.772 85.4736 179.412 85.2749 180.131 85.2749C180.294 85.2749 180.477 85.283 180.678 85.2994C180.885 85.3103 181.056 85.3293 181.193 85.3565V88.0763C181.067 88.0328 180.869 87.9947 180.596 87.962C180.33 87.9239 180.071 87.9048 179.82 87.9048C179.281 87.9048 178.797 88.0219 178.367 88.256C177.942 88.4847 177.607 88.8033 177.362 89.2116C177.117 89.62 176.994 90.091 176.994 90.6246V98H174.038ZM183.157 98V85.4545H185.983V87.5863H186.13C186.391 86.8675 186.824 86.3067 187.429 85.9038C188.033 85.4954 188.754 85.2912 189.593 85.2912C190.442 85.2912 191.158 85.4981 191.741 85.9119C192.329 86.3203 192.743 86.8784 192.983 87.5863H193.113C193.391 86.8893 193.859 86.3339 194.518 85.9201C195.182 85.5008 195.969 85.2912 196.878 85.2912C198.033 85.2912 198.975 85.656 199.704 86.3857C200.434 87.1153 200.799 88.1798 200.799 89.5792V98H197.834V90.0366C197.834 89.2579 197.627 88.6889 197.213 88.3295C196.8 87.9647 196.293 87.7823 195.694 87.7823C194.981 87.7823 194.423 88.0056 194.02 88.4521C193.622 88.8931 193.424 89.4676 193.424 90.1754V98H190.524V89.9141C190.524 89.2661 190.328 88.7488 189.936 88.3622C189.549 87.9756 189.043 87.7823 188.417 87.7823C187.992 87.7823 187.605 87.8912 187.257 88.109C186.909 88.3214 186.631 88.6236 186.424 89.0156C186.217 89.4022 186.114 89.8542 186.114 90.3714V98H183.157ZM207.409 98.2532C206.614 98.2532 205.898 98.1116 205.26 97.8285C204.629 97.5399 204.128 97.1152 203.758 96.5543C203.393 95.9935 203.21 95.302 203.21 94.4798C203.21 93.7719 203.341 93.1866 203.602 92.7237C203.864 92.2609 204.22 91.8906 204.672 91.6129C205.124 91.3352 205.633 91.1256 206.2 90.984C206.771 90.837 207.362 90.7308 207.972 90.6655C208.707 90.5893 209.303 90.5212 209.761 90.4613C210.218 90.396 210.55 90.2979 210.757 90.1673C210.97 90.0311 211.076 89.8215 211.076 89.5384V89.4893C211.076 88.8741 210.893 88.3976 210.529 88.06C210.164 87.7224 209.638 87.5536 208.952 87.5536C208.228 87.5536 207.654 87.7115 207.229 88.0273C206.81 88.3432 206.526 88.7161 206.379 89.1463L203.619 88.7543C203.837 87.992 204.196 87.3549 204.697 86.843C205.198 86.3258 205.81 85.9392 206.535 85.6832C207.259 85.4219 208.059 85.2912 208.936 85.2912C209.54 85.2912 210.142 85.362 210.741 85.5036C211.34 85.6451 211.887 85.8793 212.383 86.206C212.878 86.5272 213.276 86.9656 213.575 87.521C213.88 88.0763 214.032 88.7706 214.032 89.6037V98H211.19V96.2766H211.092C210.912 96.6251 210.659 96.9518 210.333 97.2567C210.011 97.5562 209.606 97.7985 209.116 97.9837C208.631 98.1634 208.062 98.2532 207.409 98.2532ZM208.176 96.0806C208.77 96.0806 209.284 95.9635 209.72 95.7294C210.156 95.4898 210.49 95.174 210.725 94.782C210.964 94.3899 211.084 93.9625 211.084 93.4996V92.0213C210.991 92.0975 210.834 92.1683 210.61 92.2337C210.392 92.299 210.147 92.3562 209.875 92.4052C209.603 92.4542 209.333 92.4978 209.067 92.5359C208.8 92.574 208.568 92.6067 208.372 92.6339C207.931 92.6938 207.537 92.7918 207.188 92.9279C206.84 93.064 206.565 93.2546 206.363 93.4996C206.162 93.7392 206.061 94.0496 206.061 94.4308C206.061 94.9753 206.26 95.3864 206.657 95.6641C207.055 95.9418 207.561 96.0806 208.176 96.0806ZM223.27 85.4545V87.7415H216.058V85.4545H223.27ZM217.839 82.4489H220.795V94.2266C220.795 94.6241 220.855 94.929 220.975 95.1413C221.1 95.3482 221.264 95.4898 221.465 95.5661C221.666 95.6423 221.89 95.6804 222.135 95.6804C222.32 95.6804 222.489 95.6668 222.641 95.6396C222.799 95.6123 222.919 95.5878 223.001 95.5661L223.499 97.8775C223.341 97.9319 223.115 97.9918 222.821 98.0572C222.532 98.1225 222.178 98.1606 221.759 98.1715C221.019 98.1933 220.352 98.0817 219.758 97.8366C219.164 97.5862 218.693 97.1996 218.345 96.6768C218.002 96.1541 217.833 95.5007 217.839 94.7166V82.4489ZM225.743 98V85.4545H228.699V98H225.743ZM227.229 83.674C226.761 83.674 226.358 83.5188 226.021 83.2085C225.683 82.8926 225.514 82.5142 225.514 82.0732C225.514 81.6267 225.683 81.2482 226.021 80.9379C226.358 80.622 226.761 80.4641 227.229 80.4641C227.703 80.4641 228.106 80.622 228.438 80.9379C228.776 81.2482 228.945 81.6267 228.945 82.0732C228.945 82.5142 228.776 82.8926 228.438 83.2085C228.106 83.5188 227.703 83.674 227.229 83.674ZM237.212 98.245C235.987 98.245 234.925 97.9755 234.027 97.4364C233.128 96.8974 232.431 96.1432 231.936 95.174C231.446 94.2048 231.201 93.0722 231.201 91.7763C231.201 90.4804 231.446 89.3451 231.936 88.3704C232.431 87.3957 233.128 86.6388 234.027 86.0998C234.925 85.5607 235.987 85.2912 237.212 85.2912C238.437 85.2912 239.499 85.5607 240.398 86.0998C241.296 86.6388 241.99 87.3957 242.48 88.3704C242.976 89.3451 243.224 90.4804 243.224 91.7763C243.224 93.0722 242.976 94.2048 242.48 95.174C241.99 96.1432 241.296 96.8974 240.398 97.4364C239.499 97.9755 238.437 98.245 237.212 98.245ZM237.229 95.8764C237.893 95.8764 238.448 95.694 238.895 95.3292C239.341 94.9589 239.673 94.4634 239.891 93.8427C240.114 93.2219 240.226 92.5304 240.226 91.7681C240.226 91.0004 240.114 90.3061 239.891 89.6854C239.673 89.0592 239.341 88.561 238.895 88.1907C238.448 87.8204 237.893 87.6353 237.229 87.6353C236.548 87.6353 235.982 87.8204 235.53 88.1907C235.083 88.561 234.748 89.0592 234.525 89.6854C234.307 90.3061 234.198 91.0004 234.198 91.7681C234.198 92.5304 234.307 93.2219 234.525 93.8427C234.748 94.4634 235.083 94.9589 235.53 95.3292C235.982 95.694 236.548 95.8764 237.229 95.8764ZM248.69 90.6491V98H245.733V85.4545H248.559V87.5863H248.706C248.995 86.8839 249.455 86.3258 250.086 85.9119C250.723 85.4981 251.51 85.2912 252.447 85.2912C253.313 85.2912 254.067 85.4763 254.709 85.8466C255.357 86.2169 255.858 86.7532 256.212 87.4556C256.571 88.158 256.748 89.0102 256.743 90.0121V98H253.786V90.4695C253.786 89.6309 253.569 88.9748 253.133 88.5011C252.703 88.0273 252.107 87.7905 251.344 87.7905C250.827 87.7905 250.367 87.9048 249.964 88.1335C249.566 88.3568 249.253 88.6808 249.025 89.1055C248.801 89.5302 248.69 90.0447 248.69 90.6491ZM264.849 83.8129V81.2727H278.195V83.8129H273.025V98H270.019V83.8129H264.849ZM284.372 98.245C283.114 98.245 282.028 97.9837 281.113 97.4609C280.204 96.9328 279.504 96.1868 279.014 95.223C278.524 94.2538 278.279 93.113 278.279 91.8008C278.279 90.5103 278.524 89.3777 279.014 88.4031C279.51 87.4229 280.201 86.6606 281.089 86.1161C281.976 85.5662 283.019 85.2912 284.217 85.2912C284.99 85.2912 285.72 85.4164 286.406 85.6669C287.097 85.9119 287.707 86.2931 288.235 86.8104C288.769 87.3277 289.188 87.9865 289.493 88.7869C289.798 89.5819 289.95 90.5294 289.95 91.6293V92.5359H279.667V90.543H287.116C287.111 89.9767 286.988 89.473 286.749 89.032C286.509 88.5855 286.174 88.2343 285.744 87.9783C285.319 87.7224 284.824 87.5945 284.258 87.5945C283.653 87.5945 283.122 87.7415 282.665 88.0355C282.208 88.3241 281.851 88.7053 281.595 89.179C281.345 89.6473 281.217 90.1618 281.211 90.7227V92.4624C281.211 93.192 281.345 93.8182 281.611 94.3409C281.878 94.8582 282.251 95.2557 282.73 95.5334C283.209 95.8056 283.77 95.9418 284.413 95.9418C284.843 95.9418 285.232 95.8819 285.581 95.7621C285.929 95.6368 286.231 95.4544 286.487 95.2148C286.743 94.9753 286.937 94.6785 287.067 94.3246L289.828 94.6349C289.654 95.3646 289.322 96.0017 288.831 96.5462C288.347 97.0852 287.726 97.5045 286.969 97.804C286.212 98.098 285.347 98.245 284.372 98.245ZM297.924 98.245C296.672 98.245 295.596 97.9701 294.698 97.4201C293.805 96.8701 293.116 96.1106 292.631 95.1413C292.152 94.1667 291.913 93.045 291.913 91.7763C291.913 90.5021 292.158 89.3777 292.648 88.4031C293.138 87.4229 293.829 86.6606 294.722 86.1161C295.621 85.5662 296.683 85.2912 297.908 85.2912C298.926 85.2912 299.827 85.479 300.611 85.8548C301.401 86.225 302.03 86.7505 302.498 87.4311C302.966 88.1063 303.233 88.8958 303.298 89.7997H300.472C300.358 89.1953 300.086 88.6916 299.656 88.2887C299.231 87.8803 298.662 87.6761 297.949 87.6761C297.344 87.6761 296.813 87.8395 296.356 88.1662C295.899 88.4875 295.542 88.9503 295.286 89.5547C295.035 90.1591 294.91 90.8833 294.91 91.7273C294.91 92.5821 295.035 93.3172 295.286 93.9325C295.536 94.5424 295.888 95.0134 296.34 95.3455C296.797 95.6722 297.333 95.8356 297.949 95.8356C298.384 95.8356 298.774 95.7539 299.117 95.5906C299.465 95.4218 299.756 95.1795 299.991 94.8636C300.225 94.5478 300.385 94.1639 300.472 93.712H303.298C303.228 94.5996 302.966 95.3864 302.514 96.0724C302.062 96.7531 301.447 97.2867 300.668 97.6733C299.89 98.0545 298.975 98.245 297.924 98.245ZM308.683 90.6491V98H305.726V81.2727H308.618V87.5863H308.765C309.059 86.8784 309.513 86.3203 310.129 85.9119C310.749 85.4981 311.539 85.2912 312.497 85.2912C313.368 85.2912 314.128 85.4736 314.776 85.8384C315.424 86.2032 315.925 86.7369 316.279 87.4393C316.638 88.1417 316.818 88.9993 316.818 90.0121V98H313.861V90.4695C313.861 89.6255 313.643 88.9693 313.208 88.5011C312.778 88.0273 312.173 87.7905 311.395 87.7905C310.872 87.7905 310.404 87.9048 309.99 88.1335C309.581 88.3568 309.26 88.6808 309.026 89.1055C308.797 89.5302 308.683 90.0447 308.683 90.6491ZM322.788 90.6491V98H319.832V85.4545H322.658V87.5863H322.805C323.093 86.8839 323.553 86.3258 324.185 85.9119C324.822 85.4981 325.609 85.2912 326.545 85.2912C327.411 85.2912 328.165 85.4763 328.808 85.8466C329.456 86.2169 329.957 86.7532 330.311 87.4556C330.67 88.158 330.847 89.0102 330.842 90.0121V98H327.885V90.4695C327.885 89.6309 327.667 88.9748 327.232 88.5011C326.801 88.0273 326.205 87.7905 325.443 87.7905C324.926 87.7905 324.465 87.9048 324.062 88.1335C323.665 88.3568 323.352 88.6808 323.123 89.1055C322.9 89.5302 322.788 90.0447 322.788 90.6491ZM339.32 98.245C338.094 98.245 337.033 97.9755 336.134 97.4364C335.236 96.8974 334.539 96.1432 334.043 95.174C333.553 94.2048 333.308 93.0722 333.308 91.7763C333.308 90.4804 333.553 89.3451 334.043 88.3704C334.539 87.3957 335.236 86.6388 336.134 86.0998C337.033 85.5607 338.094 85.2912 339.32 85.2912C340.545 85.2912 341.607 85.5607 342.505 86.0998C343.403 86.6388 344.098 87.3957 344.588 88.3704C345.083 89.3451 345.331 90.4804 345.331 91.7763C345.331 93.0722 345.083 94.2048 344.588 95.174C344.098 96.1432 343.403 96.8974 342.505 97.4364C341.607 97.9755 340.545 98.245 339.32 98.245ZM339.336 95.8764C340 95.8764 340.556 95.694 341.002 95.3292C341.449 94.9589 341.781 94.4634 341.999 93.8427C342.222 93.2219 342.333 92.5304 342.333 91.7681C342.333 91.0004 342.222 90.3061 341.999 89.6854C341.781 89.0592 341.449 88.561 341.002 88.1907C340.556 87.8204 340 87.6353 339.336 87.6353C338.655 87.6353 338.089 87.8204 337.637 88.1907C337.191 88.561 336.856 89.0592 336.632 89.6854C336.415 90.3061 336.306 91.0004 336.306 91.7681C336.306 92.5304 336.415 93.2219 336.632 93.8427C336.856 94.4634 337.191 94.9589 337.637 95.3292C338.089 95.694 338.655 95.8764 339.336 95.8764ZM350.797 81.2727V98H347.84V81.2727H350.797ZM359.31 98.245C358.085 98.245 357.023 97.9755 356.124 97.4364C355.226 96.8974 354.529 96.1432 354.034 95.174C353.544 94.2048 353.298 93.0722 353.298 91.7763C353.298 90.4804 353.544 89.3451 354.034 88.3704C354.529 87.3957 355.226 86.6388 356.124 86.0998C357.023 85.5607 358.085 85.2912 359.31 85.2912C360.535 85.2912 361.597 85.5607 362.495 86.0998C363.394 86.6388 364.088 87.3957 364.578 88.3704C365.073 89.3451 365.321 90.4804 365.321 91.7763C365.321 93.0722 365.073 94.2048 364.578 95.174C364.088 96.1432 363.394 96.8974 362.495 97.4364C361.597 97.9755 360.535 98.245 359.31 98.245ZM359.326 95.8764C359.99 95.8764 360.546 95.694 360.992 95.3292C361.439 94.9589 361.771 94.4634 361.989 93.8427C362.212 93.2219 362.324 92.5304 362.324 91.7681C362.324 91.0004 362.212 90.3061 361.989 89.6854C361.771 89.0592 361.439 88.561 360.992 88.1907C360.546 87.8204 359.99 87.6353 359.326 87.6353C358.646 87.6353 358.079 87.8204 357.627 88.1907C357.181 88.561 356.846 89.0592 356.623 89.6854C356.405 90.3061 356.296 91.0004 356.296 91.7681C356.296 92.5304 356.405 93.2219 356.623 93.8427C356.846 94.4634 357.181 94.9589 357.627 95.3292C358.079 95.694 358.646 95.8764 359.326 95.8764ZM373.287 102.966C372.225 102.966 371.313 102.822 370.551 102.533C369.788 102.25 369.176 101.869 368.713 101.39C368.25 100.91 367.929 100.379 367.749 99.7969L370.412 99.1516C370.531 99.3967 370.706 99.639 370.934 99.8786C371.163 100.124 371.471 100.325 371.857 100.483C372.249 100.646 372.742 100.728 373.336 100.728C374.174 100.728 374.868 100.524 375.418 100.115C375.968 99.7125 376.243 99.0482 376.243 98.1225V95.7457H376.096C375.944 96.0507 375.721 96.3638 375.427 96.685C375.138 97.0063 374.754 97.2758 374.275 97.4936C373.801 97.7114 373.205 97.8203 372.486 97.8203C371.522 97.8203 370.649 97.5943 369.864 97.1424C369.086 96.685 368.465 96.0044 368.002 95.1005C367.545 94.1912 367.316 93.0531 367.316 91.6864C367.316 90.3088 367.545 89.1463 368.002 88.1989C368.465 87.246 369.089 86.5245 369.873 86.0344C370.657 85.5389 371.531 85.2912 372.494 85.2912C373.229 85.2912 373.834 85.4164 374.308 85.6669C374.787 85.9119 375.168 86.2087 375.451 86.5572C375.734 86.9002 375.949 87.2242 376.096 87.5291H376.26V85.4545H379.176V98.2042C379.176 99.2769 378.92 100.164 378.408 100.867C377.896 101.569 377.196 102.095 376.309 102.443C375.421 102.792 374.414 102.966 373.287 102.966ZM373.311 95.5007C373.937 95.5007 374.471 95.3482 374.912 95.0433C375.353 94.7384 375.688 94.3001 375.917 93.7283C376.145 93.1566 376.26 92.4705 376.26 91.6701C376.26 90.8806 376.145 90.189 375.917 89.5955C375.693 89.002 375.361 88.5419 374.92 88.2152C374.485 87.883 373.948 87.717 373.311 87.717C372.652 87.717 372.102 87.8885 371.661 88.2315C371.22 88.5746 370.888 89.0456 370.665 89.6445C370.442 90.238 370.33 90.9132 370.33 91.6701C370.33 92.4379 370.442 93.1103 370.665 93.6875C370.894 94.2592 371.228 94.7057 371.669 95.027C372.116 95.3428 372.663 95.5007 373.311 95.5007ZM384.043 102.705C383.64 102.705 383.267 102.672 382.924 102.607C382.587 102.547 382.317 102.476 382.116 102.394L382.802 100.091C383.232 100.216 383.616 100.276 383.954 100.271C384.291 100.265 384.588 100.159 384.844 99.9521C385.105 99.7506 385.326 99.413 385.505 98.9393L385.759 98.2614L381.209 85.4545H384.346L387.237 94.929H387.368L390.267 85.4545H393.412L388.389 99.5192C388.154 100.183 387.844 100.752 387.457 101.226C387.071 101.705 386.597 102.07 386.036 102.321C385.481 102.577 384.817 102.705 384.043 102.705ZM408.767 88.4194V90.8533H401.236V88.4194H408.767ZM432.03 86.9165H428.975C428.888 86.4156 428.728 85.9718 428.494 85.5852C428.259 85.1932 427.968 84.861 427.62 84.5888C427.271 84.3165 426.874 84.1123 426.427 83.9762C425.986 83.8346 425.51 83.7638 424.998 83.7638C424.089 83.7638 423.283 83.9925 422.58 84.4499C421.878 84.9019 421.328 85.5662 420.93 86.4428C420.533 87.314 420.334 88.3786 420.334 89.6364C420.334 90.916 420.533 91.9941 420.93 92.8707C421.333 93.742 421.883 94.4008 422.58 94.8473C423.283 95.2884 424.086 95.5089 424.99 95.5089C425.491 95.5089 425.959 95.4435 426.395 95.3129C426.836 95.1767 427.23 94.978 427.579 94.7166C427.933 94.4553 428.23 94.134 428.469 93.7528C428.714 93.3717 428.883 92.9361 428.975 92.446L432.03 92.4624C431.916 93.2573 431.668 94.0033 431.287 94.7003C430.911 95.3973 430.418 96.0125 429.809 96.5462C429.199 97.0743 428.485 97.4882 427.669 97.7876C426.852 98.0817 425.945 98.2287 424.949 98.2287C423.479 98.2287 422.166 97.8884 421.012 97.2077C419.858 96.5271 418.948 95.5443 418.284 94.2592C417.62 92.9742 417.288 91.4332 417.288 89.6364C417.288 87.834 417.623 86.2931 418.292 85.0135C418.962 83.7285 419.874 82.7456 421.028 82.065C422.183 81.3844 423.49 81.044 424.949 81.044C425.88 81.044 426.746 81.1747 427.546 81.4361C428.347 81.6974 429.06 82.0813 429.686 82.5877C430.312 83.0887 430.827 83.704 431.23 84.4336C431.638 85.1578 431.905 85.9854 432.03 86.9165ZM440.147 98.245C438.922 98.245 437.86 97.9755 436.961 97.4364C436.063 96.8974 435.366 96.1432 434.87 95.174C434.38 94.2048 434.135 93.0722 434.135 91.7763C434.135 90.4804 434.38 89.3451 434.87 88.3704C435.366 87.3957 436.063 86.6388 436.961 86.0998C437.86 85.5607 438.922 85.2912 440.147 85.2912C441.372 85.2912 442.434 85.5607 443.332 86.0998C444.231 86.6388 444.925 87.3957 445.415 88.3704C445.91 89.3451 446.158 90.4804 446.158 91.7763C446.158 93.0722 445.91 94.2048 445.415 95.174C444.925 96.1432 444.231 96.8974 443.332 97.4364C442.434 97.9755 441.372 98.245 440.147 98.245ZM440.163 95.8764C440.827 95.8764 441.383 95.694 441.829 95.3292C442.276 94.9589 442.608 94.4634 442.826 93.8427C443.049 93.2219 443.161 92.5304 443.161 91.7681C443.161 91.0004 443.049 90.3061 442.826 89.6854C442.608 89.0592 442.276 88.561 441.829 88.1907C441.383 87.8204 440.827 87.6353 440.163 87.6353C439.482 87.6353 438.916 87.8204 438.464 88.1907C438.018 88.561 437.683 89.0592 437.46 89.6854C437.242 90.3061 437.133 91.0004 437.133 91.7681C437.133 92.5304 437.242 93.2219 437.46 93.8427C437.683 94.4634 438.018 94.9589 438.464 95.3292C438.916 95.694 439.482 95.8764 440.163 95.8764ZM451.624 90.6491V98H448.668V85.4545H451.494V87.5863H451.641C451.929 86.8839 452.389 86.3258 453.021 85.9119C453.658 85.4981 454.445 85.2912 455.381 85.2912C456.247 85.2912 457.001 85.4763 457.644 85.8466C458.292 86.2169 458.793 86.7532 459.147 87.4556C459.506 88.158 459.683 89.0102 459.678 90.0121V98H456.721V90.4695C456.721 89.6309 456.503 88.9748 456.067 88.5011C455.637 88.0273 455.041 87.7905 454.279 87.7905C453.761 87.7905 453.301 87.9048 452.898 88.1335C452.501 88.3568 452.188 88.6808 451.959 89.1055C451.736 89.5302 451.624 90.0447 451.624 90.6491ZM472.599 88.7706L469.903 89.0646C469.827 88.7924 469.694 88.5365 469.503 88.2969C469.318 88.0573 469.068 87.864 468.752 87.717C468.436 87.57 468.049 87.4964 467.592 87.4964C466.977 87.4964 466.459 87.6299 466.04 87.8967C465.626 88.1635 465.422 88.5092 465.428 88.9339C465.422 89.2988 465.556 89.5955 465.828 89.8242C466.105 90.0529 466.563 90.2408 467.2 90.3878L469.34 90.8452C470.527 91.1011 471.409 91.5067 471.986 92.0621C472.569 92.6175 472.863 93.3445 472.868 94.2429C472.863 95.0324 472.631 95.7294 472.174 96.3338C471.722 96.9328 471.093 97.401 470.287 97.7386C469.481 98.0762 468.556 98.245 467.51 98.245C465.975 98.245 464.739 97.9238 463.802 97.2812C462.866 96.6333 462.308 95.7321 462.128 94.5778L465.011 94.3001C465.142 94.8664 465.419 95.2938 465.844 95.5824C466.269 95.871 466.821 96.0153 467.502 96.0153C468.205 96.0153 468.768 95.871 469.193 95.5824C469.623 95.2938 469.838 94.9371 469.838 94.5124C469.838 94.1531 469.699 93.8563 469.422 93.6222C469.149 93.388 468.725 93.2083 468.147 93.0831L466.007 92.6339C464.804 92.3834 463.914 91.9614 463.337 91.3679C462.759 90.7689 462.474 90.0121 462.479 89.0973C462.474 88.3241 462.683 87.6544 463.108 87.0881C463.538 86.5163 464.134 86.0753 464.897 85.7649C465.664 85.4491 466.549 85.2912 467.551 85.2912C469.021 85.2912 470.178 85.6043 471.022 86.2305C471.872 86.8567 472.397 87.7034 472.599 88.7706ZM483.302 92.7237V85.4545H486.259V98H483.392V95.7702H483.262C482.978 96.4727 482.513 97.0471 481.865 97.4936C481.222 97.9401 480.43 98.1634 479.488 98.1634C478.666 98.1634 477.939 97.9809 477.307 97.6161C476.681 97.2459 476.191 96.7095 475.837 96.0071C475.483 95.2992 475.306 94.4444 475.306 93.4425V85.4545H478.263V92.9851C478.263 93.7801 478.481 94.4117 478.916 94.88C479.352 95.3482 479.924 95.5824 480.632 95.5824C481.067 95.5824 481.489 95.4762 481.898 95.2638C482.306 95.0515 482.641 94.7357 482.902 94.3164C483.169 93.8917 483.302 93.3608 483.302 92.7237ZM492.256 81.2727V98H489.299V81.2727H492.256ZM501.561 85.4545V87.7415H494.349V85.4545H501.561ZM496.13 82.4489H499.086V94.2266C499.086 94.6241 499.146 94.929 499.266 95.1413C499.391 95.3482 499.555 95.4898 499.756 95.5661C499.958 95.6423 500.181 95.6804 500.426 95.6804C500.611 95.6804 500.78 95.6668 500.932 95.6396C501.09 95.6123 501.21 95.5878 501.292 95.5661L501.79 97.8775C501.632 97.9319 501.406 97.9918 501.112 98.0572C500.823 98.1225 500.469 98.1606 500.05 98.1715C499.31 98.1933 498.643 98.0817 498.049 97.8366C497.455 97.5862 496.984 97.1996 496.636 96.6768C496.293 96.1541 496.124 95.5007 496.13 94.7166V82.4489ZM507.644 98.2532C506.849 98.2532 506.133 98.1116 505.496 97.8285C504.864 97.5399 504.363 97.1152 503.993 96.5543C503.628 95.9935 503.446 95.302 503.446 94.4798C503.446 93.7719 503.576 93.1866 503.838 92.7237C504.099 92.2609 504.456 91.8906 504.908 91.6129C505.36 91.3352 505.869 91.1256 506.435 90.984C507.007 90.837 507.598 90.7308 508.207 90.6655C508.943 90.5893 509.539 90.5212 509.996 90.4613C510.454 90.396 510.786 90.2979 510.993 90.1673C511.205 90.0311 511.311 89.8215 511.311 89.5384V89.4893C511.311 88.8741 511.129 88.3976 510.764 88.06C510.399 87.7224 509.874 87.5536 509.188 87.5536C508.463 87.5536 507.889 87.7115 507.464 88.0273C507.045 88.3432 506.762 88.7161 506.615 89.1463L503.854 88.7543C504.072 87.992 504.431 87.3549 504.932 86.843C505.433 86.3258 506.046 85.9392 506.77 85.6832C507.494 85.4219 508.295 85.2912 509.171 85.2912C509.776 85.2912 510.377 85.362 510.976 85.5036C511.575 85.6451 512.122 85.8793 512.618 86.206C513.113 86.5272 513.511 86.9656 513.81 87.521C514.115 88.0763 514.268 88.7706 514.268 89.6037V98H511.426V96.2766H511.328C511.148 96.6251 510.895 96.9518 510.568 97.2567C510.247 97.5562 509.841 97.7985 509.351 97.9837C508.866 98.1634 508.297 98.2532 507.644 98.2532ZM508.412 96.0806C509.005 96.0806 509.52 95.9635 509.955 95.7294C510.391 95.4898 510.726 95.174 510.96 94.782C511.2 94.3899 511.319 93.9625 511.319 93.4996V92.0213C511.227 92.0975 511.069 92.1683 510.846 92.2337C510.628 92.299 510.383 92.3562 510.111 92.4052C509.838 92.4542 509.569 92.4978 509.302 92.5359C509.035 92.574 508.804 92.6067 508.608 92.6339C508.167 92.6938 507.772 92.7918 507.423 92.9279C507.075 93.064 506.8 93.2546 506.598 93.4996C506.397 93.7392 506.296 94.0496 506.296 94.4308C506.296 94.9753 506.495 95.3864 506.892 95.6641C507.29 95.9418 507.796 96.0806 508.412 96.0806ZM520.198 90.6491V98H517.241V85.4545H520.067V87.5863H520.214C520.502 86.8839 520.963 86.3258 521.594 85.9119C522.231 85.4981 523.018 85.2912 523.955 85.2912C524.82 85.2912 525.575 85.4763 526.217 85.8466C526.865 86.2169 527.366 86.7532 527.72 87.4556C528.079 88.158 528.256 89.0102 528.251 90.0121V98H525.294V90.4695C525.294 89.6309 525.076 88.9748 524.641 88.5011C524.211 88.0273 523.614 87.7905 522.852 87.7905C522.335 87.7905 521.875 87.9048 521.472 88.1335C521.074 88.3568 520.761 88.6808 520.532 89.1055C520.309 89.5302 520.198 90.0447 520.198 90.6491ZM537.521 85.4545V87.7415H530.309V85.4545H537.521ZM532.09 82.4489H535.046V94.2266C535.046 94.6241 535.106 94.929 535.226 95.1413C535.351 95.3482 535.515 95.4898 535.716 95.5661C535.917 95.6423 536.141 95.6804 536.386 95.6804C536.571 95.6804 536.74 95.6668 536.892 95.6396C537.05 95.6123 537.17 95.5878 537.252 95.5661L537.75 97.8775C537.592 97.9319 537.366 97.9918 537.072 98.0572C536.783 98.1225 536.429 98.1606 536.01 98.1715C535.27 98.1933 534.602 98.0817 534.009 97.8366C533.415 97.5862 532.944 97.1996 532.596 96.6768C532.253 96.1541 532.084 95.5007 532.09 94.7166V82.4489Z" fill="#0A2149"/>
<circle cx="55" cy="56" r="55" fill="#0A2149"/>
<path d="M44.8182 24.1818L50.9545 73.4091H51.5L74 24.1818H95.4091L60.7727 94H34.8636L23.4091 24.1818H44.8182Z" fill="white"/>
</svg>
