<svg width="464" height="118" viewBox="0 0 464 118" fill="none" xmlns="http://www.w3.org/2000/svg">
<path d="M0.166016 26.3242H15.9043L26.8613 61.3535L37.6523 26.3242H52.9258L34.8633 75H18.5605L0.166016 26.3242ZM58.6367 26.3242H72.1504V35.5215H58.6367V26.3242ZM58.6367 39.7383H72.1504V75H58.6367V39.7383ZM80.7832 39.7383H93.3672V45.4824C95.2487 43.1361 97.1523 41.4648 99.0781 40.4688C101.004 39.4505 103.35 38.9414 106.117 38.9414C109.858 38.9414 112.78 40.0592 114.883 42.2949C117.008 44.5085 118.07 47.9395 118.07 52.5879V75H104.49V55.6094C104.49 53.3958 104.081 51.8353 103.262 50.9277C102.443 49.998 101.292 49.5332 99.8086 49.5332C98.1706 49.5332 96.8424 50.153 95.8242 51.3926C94.806 52.6322 94.2969 54.8568 94.2969 58.0664V75H80.7832V39.7383ZM152.436 61.2207L165.285 62.6816C164.577 65.36 163.415 67.6842 161.799 69.6543C160.183 71.6022 158.113 73.1185 155.59 74.2031C153.089 75.2878 149.901 75.8301 146.027 75.8301C142.286 75.8301 139.165 75.487 136.664 74.8008C134.185 74.0924 132.049 72.9635 130.256 71.4141C128.463 69.8424 127.057 68.0052 126.039 65.9023C125.021 63.7995 124.512 61.0104 124.512 57.5352C124.512 53.9049 125.132 50.8835 126.371 48.4707C127.279 46.6999 128.518 45.1172 130.09 43.7227C131.661 42.306 133.277 41.2546 134.938 40.5684C137.572 39.4837 140.947 38.9414 145.064 38.9414C150.82 38.9414 155.202 39.9707 158.213 42.0293C161.245 44.0879 163.37 47.0983 164.588 51.0605L151.871 52.7539C151.473 51.2487 150.742 50.1198 149.68 49.3672C148.639 48.5924 147.234 48.2051 145.463 48.2051C143.227 48.2051 141.412 49.013 140.018 50.6289C138.645 52.2227 137.959 54.6465 137.959 57.9004C137.959 60.8001 138.645 63.0026 140.018 64.5078C141.39 66.013 143.139 66.7656 145.264 66.7656C147.035 66.7656 148.518 66.3118 149.713 65.4043C150.93 64.4967 151.838 63.1022 152.436 61.2207ZM210.641 60.7227H183.547C183.79 62.8919 184.377 64.5078 185.307 65.5703C186.613 67.0977 188.317 67.8613 190.42 67.8613C191.748 67.8613 193.01 67.5293 194.205 66.8652C194.936 66.4447 195.721 65.7031 196.562 64.6406L209.877 65.8691C207.84 69.4108 205.383 71.9564 202.506 73.5059C199.628 75.0332 195.5 75.7969 190.121 75.7969C185.451 75.7969 181.776 75.1439 179.098 73.8379C176.419 72.5098 174.195 70.418 172.424 67.5625C170.675 64.6849 169.801 61.3092 169.801 57.4355C169.801 51.9238 171.561 47.4635 175.08 44.0547C178.622 40.6458 183.503 38.9414 189.723 38.9414C194.77 38.9414 198.754 39.7051 201.676 41.2324C204.598 42.7598 206.822 44.9733 208.35 47.873C209.877 50.7728 210.641 54.5469 210.641 59.1953V60.7227ZM196.895 54.248C196.629 51.6361 195.921 49.7656 194.77 48.6367C193.641 47.5078 192.146 46.9434 190.287 46.9434C188.14 46.9434 186.424 47.7956 185.141 49.5C184.322 50.5625 183.801 52.1452 183.58 54.248H196.895ZM216.85 39.7383H229.434V45.4824C231.315 43.1361 233.219 41.4648 235.145 40.4688C237.07 39.4505 239.417 38.9414 242.184 38.9414C245.924 38.9414 248.846 40.0592 250.949 42.2949C253.074 44.5085 254.137 47.9395 254.137 52.5879V75H240.557V55.6094C240.557 53.3958 240.147 51.8353 239.328 50.9277C238.509 49.998 237.358 49.5332 235.875 49.5332C234.237 49.5332 232.909 50.153 231.891 51.3926C230.872 52.6322 230.363 54.8568 230.363 58.0664V75H216.85V39.7383ZM278.508 26.3242V39.7383H285.945V49.5996H278.508V62.1172C278.508 63.6224 278.652 64.6185 278.939 65.1055C279.382 65.8581 280.157 66.2344 281.264 66.2344C282.26 66.2344 283.654 65.9466 285.447 65.3711L286.443 74.7012C283.101 75.4316 279.98 75.7969 277.08 75.7969C273.715 75.7969 271.236 75.3652 269.643 74.502C268.049 73.6387 266.865 72.3327 266.09 70.584C265.337 68.8132 264.961 65.9577 264.961 62.0176V49.5996H259.98V39.7383H264.961V33.2637L278.508 26.3242ZM325.723 55.1113L338.904 59.0957C338.019 62.7923 336.624 65.8802 334.721 68.3594C332.817 70.8385 330.449 72.709 327.615 73.9707C324.804 75.2324 321.218 75.8633 316.857 75.8633C311.567 75.8633 307.24 75.0996 303.875 73.5723C300.533 72.0228 297.644 69.3112 295.209 65.4375C292.774 61.5638 291.557 56.6055 291.557 50.5625C291.557 42.5052 293.693 36.3184 297.965 32.002C302.259 27.6634 308.324 25.4941 316.16 25.4941C322.292 25.4941 327.106 26.7337 330.604 29.2129C334.123 31.6921 336.735 35.4993 338.439 40.6348L325.158 43.5898C324.693 42.1068 324.206 41.0221 323.697 40.3359C322.856 39.1849 321.827 38.2995 320.609 37.6797C319.392 37.0599 318.031 36.75 316.525 36.75C313.117 36.75 310.505 38.1224 308.689 40.8672C307.317 42.9036 306.631 46.1022 306.631 50.4629C306.631 55.8639 307.45 59.5716 309.088 61.5859C310.726 63.5781 313.028 64.5742 315.994 64.5742C318.872 64.5742 321.041 63.7663 322.502 62.1504C323.985 60.5345 325.059 58.1882 325.723 55.1113ZM343.686 57.4688C343.686 52.0898 345.501 47.6628 349.131 44.1875C352.761 40.6901 357.664 38.9414 363.84 38.9414C370.901 38.9414 376.236 40.9889 379.844 45.084C382.743 48.3822 384.193 52.444 384.193 57.2695C384.193 62.6927 382.389 67.1419 378.781 70.6172C375.195 74.0703 370.226 75.7969 363.873 75.7969C358.206 75.7969 353.624 74.3581 350.127 71.4805C345.833 67.9167 343.686 63.2461 343.686 57.4688ZM357.232 57.4355C357.232 60.5788 357.863 62.903 359.125 64.4082C360.409 65.9134 362.014 66.666 363.939 66.666C365.887 66.666 367.481 65.9245 368.721 64.4414C369.982 62.9583 370.613 60.5788 370.613 57.3027C370.613 54.248 369.982 51.9792 368.721 50.4961C367.459 48.9909 365.898 48.2383 364.039 48.2383C362.069 48.2383 360.442 49.002 359.158 50.5293C357.874 52.0345 357.232 54.3366 357.232 57.4355ZM390.834 39.7383H403.484V45.5156C404.702 43.0143 405.952 41.2988 407.236 40.3691C408.542 39.4173 410.147 38.9414 412.051 38.9414C414.043 38.9414 416.223 39.5612 418.592 40.8008L414.408 50.4297C412.814 49.7656 411.553 49.4336 410.623 49.4336C408.852 49.4336 407.48 50.1641 406.506 51.625C405.111 53.6836 404.414 57.5352 404.414 63.1797V75H390.834V39.7383ZM461.191 60.7227H434.098C434.341 62.8919 434.928 64.5078 435.857 65.5703C437.163 67.0977 438.868 67.8613 440.971 67.8613C442.299 67.8613 443.561 67.5293 444.756 66.8652C445.486 66.4447 446.272 65.7031 447.113 64.6406L460.428 65.8691C458.391 69.4108 455.934 71.9564 453.057 73.5059C450.179 75.0332 446.051 75.7969 440.672 75.7969C436.001 75.7969 432.327 75.1439 429.648 73.8379C426.97 72.5098 424.745 70.418 422.975 67.5625C421.226 64.6849 420.352 61.3092 420.352 57.4355C420.352 51.9238 422.111 47.4635 425.631 44.0547C429.173 40.6458 434.053 38.9414 440.273 38.9414C445.32 38.9414 449.305 39.7051 452.227 41.2324C455.148 42.7598 457.373 44.9733 458.9 47.873C460.428 50.7728 461.191 54.5469 461.191 59.1953V60.7227ZM447.445 54.248C447.18 51.6361 446.471 49.7656 445.32 48.6367C444.191 47.5078 442.697 46.9434 440.838 46.9434C438.691 46.9434 436.975 47.7956 435.691 49.5C434.872 50.5625 434.352 52.1452 434.131 54.248H447.445Z" fill="#0A2149"/>
<path d="M19.1218 84.5455V110H14.5107V84.5455H19.1218ZM28.4156 98.8139V110H23.9163V90.9091H28.2167V94.1531H28.4404C28.8796 93.0842 29.5798 92.2348 30.5409 91.6051C31.5104 90.9754 32.7077 90.6605 34.1329 90.6605C35.4504 90.6605 36.598 90.9422 37.5757 91.5057C38.5618 92.0691 39.3241 92.8853 39.8627 93.9542C40.4095 95.0231 40.6788 96.3198 40.6705 97.8445V110H36.1713V98.5405C36.1713 97.2644 35.8398 96.266 35.1769 95.5451C34.5223 94.8242 33.615 94.4638 32.455 94.4638C31.6678 94.4638 30.9677 94.6378 30.3545 94.9858C29.7496 95.3255 29.2732 95.8185 28.9252 96.4648C28.5854 97.1112 28.4156 97.8942 28.4156 98.8139ZM52.3289 110.336C50.8292 110.336 49.4868 109.95 48.3019 109.18C47.117 108.409 46.1807 107.29 45.493 105.824C44.8052 104.357 44.4614 102.576 44.4614 100.479C44.4614 98.3582 44.8094 96.5684 45.5054 95.1101C46.2097 93.6435 47.1585 92.5373 48.3517 91.7915C49.5448 91.0375 50.8747 90.6605 52.3414 90.6605C53.46 90.6605 54.3797 90.8511 55.1006 91.2322C55.8215 91.6051 56.3932 92.0567 56.8158 92.587C57.2384 93.109 57.5657 93.602 57.7977 94.0661H57.9841V84.5455H62.4958V110H58.0711V106.992H57.7977C57.5657 107.456 57.2301 107.949 56.7909 108.471C56.3518 108.985 55.7718 109.424 55.0509 109.789C54.33 110.153 53.4227 110.336 52.3289 110.336ZM53.5843 106.644C54.5371 106.644 55.3492 106.387 56.0203 105.874C56.6915 105.352 57.2011 104.627 57.5491 103.699C57.8971 102.77 58.0711 101.689 58.0711 100.455C58.0711 99.2199 57.8971 98.1469 57.5491 97.2354C57.2094 96.324 56.7039 95.6155 56.0328 95.1101C55.3699 94.6046 54.5537 94.3519 53.5843 94.3519C52.5816 94.3519 51.7448 94.6129 51.0736 95.1349C50.4024 95.657 49.897 96.3778 49.5573 97.2976C49.2175 98.2173 49.0477 99.2696 49.0477 100.455C49.0477 101.648 49.2175 102.712 49.5573 103.649C49.9053 104.577 50.4149 105.31 51.086 105.849C51.7655 106.379 52.5982 106.644 53.5843 106.644ZM75.742 110.373C73.8279 110.373 72.1749 109.975 70.7828 109.18C69.3991 108.376 68.3343 107.241 67.5886 105.774C66.8429 104.299 66.47 102.563 66.47 100.566C66.47 98.6026 66.8429 96.8791 67.5886 95.396C68.3426 93.9045 69.3949 92.7444 70.7456 91.9158C72.0962 91.079 73.6829 90.6605 75.5059 90.6605C76.6825 90.6605 77.7928 90.8511 78.8368 91.2322C79.8891 91.6051 80.8172 92.1851 81.6209 92.9723C82.4329 93.7595 83.071 94.7621 83.535 95.9801C83.999 97.1899 84.231 98.6316 84.231 100.305V101.685H68.5829V98.6523H79.9181C79.9099 97.7906 79.7234 97.0241 79.3588 96.353C78.9943 95.6735 78.4847 95.1391 77.8301 94.7496C77.1838 94.3602 76.4297 94.1655 75.568 94.1655C74.6483 94.1655 73.8404 94.3892 73.1444 94.8366C72.4483 95.2758 71.9056 95.8558 71.5162 96.5767C71.135 97.2893 70.9403 98.0723 70.932 98.9258V101.573C70.932 102.683 71.135 103.636 71.541 104.432C71.947 105.219 72.5146 105.824 73.2438 106.246C73.973 106.661 74.8264 106.868 75.8042 106.868C76.4587 106.868 77.0512 106.777 77.5815 106.594C78.1118 106.404 78.5717 106.126 78.9611 105.762C79.3506 105.397 79.6447 104.946 79.8436 104.407L84.0446 104.879C83.7794 105.99 83.274 106.959 82.5282 107.788C81.7908 108.608 80.8462 109.246 79.6944 109.702C78.5427 110.149 77.2252 110.373 75.742 110.373ZM88.0374 117.159V90.9091H92.4621V94.0661H92.7231C92.9551 93.602 93.2824 93.109 93.705 92.587C94.1276 92.0567 94.6993 91.6051 95.4202 91.2322C96.1411 90.8511 97.0608 90.6605 98.1794 90.6605C99.6543 90.6605 100.984 91.0375 102.169 91.7915C103.362 92.5373 104.307 93.6435 105.003 95.1101C105.707 96.5684 106.059 98.3582 106.059 100.479C106.059 102.576 105.716 104.357 105.028 105.824C104.34 107.29 103.404 108.409 102.219 109.18C101.034 109.95 99.6916 110.336 98.1919 110.336C97.0981 110.336 96.1908 110.153 95.4699 109.789C94.749 109.424 94.169 108.985 93.7298 108.471C93.299 107.949 92.9634 107.456 92.7231 106.992H92.5367V117.159H88.0374ZM92.4497 100.455C92.4497 101.689 92.6237 102.77 92.9717 103.699C93.328 104.627 93.8376 105.352 94.5004 105.874C95.1716 106.387 95.9836 106.644 96.9365 106.644C97.9308 106.644 98.7636 106.379 99.4347 105.849C100.106 105.31 100.611 104.577 100.951 103.649C101.299 102.712 101.473 101.648 101.473 100.455C101.473 99.2696 101.303 98.2173 100.964 97.2976C100.624 96.3778 100.118 95.657 99.4472 95.1349C98.776 94.6129 97.9391 94.3519 96.9365 94.3519C95.9753 94.3519 95.1592 94.6046 94.488 95.1101C93.8169 95.6155 93.3073 96.324 92.9593 97.2354C92.6195 98.1469 92.4497 99.2199 92.4497 100.455ZM118.364 110.373C116.45 110.373 114.797 109.975 113.405 109.18C112.021 108.376 110.956 107.241 110.211 105.774C109.465 104.299 109.092 102.563 109.092 100.566C109.092 98.6026 109.465 96.8791 110.211 95.396C110.965 93.9045 112.017 92.7444 113.368 91.9158C114.718 91.079 116.305 90.6605 118.128 90.6605C119.305 90.6605 120.415 90.8511 121.459 91.2322C122.511 91.6051 123.439 92.1851 124.243 92.9723C125.055 93.7595 125.693 94.7621 126.157 95.9801C126.621 97.1899 126.853 98.6316 126.853 100.305V101.685H111.205V98.6523H122.54C122.532 97.7906 122.345 97.0241 121.981 96.353C121.616 95.6735 121.107 95.1391 120.452 94.7496C119.806 94.3602 119.052 94.1655 118.19 94.1655C117.27 94.1655 116.462 94.3892 115.766 94.8366C115.07 95.2758 114.528 95.8558 114.138 96.5767C113.757 97.2893 113.562 98.0723 113.554 98.9258V101.573C113.554 102.683 113.757 103.636 114.163 104.432C114.569 105.219 115.137 105.824 115.866 106.246C116.595 106.661 117.448 106.868 118.426 106.868C119.081 106.868 119.673 106.777 120.204 106.594C120.734 106.404 121.194 106.126 121.583 105.762C121.973 105.397 122.267 104.946 122.466 104.407L126.667 104.879C126.401 105.99 125.896 106.959 125.15 107.788C124.413 108.608 123.468 109.246 122.316 109.702C121.165 110.149 119.847 110.373 118.364 110.373ZM135.159 98.8139V110H130.659V90.9091H134.96V94.1531H135.184C135.623 93.0842 136.323 92.2348 137.284 91.6051C138.254 90.9754 139.451 90.6605 140.876 90.6605C142.194 90.6605 143.341 90.9422 144.319 91.5057C145.305 92.0691 146.067 92.8853 146.606 93.9542C147.153 95.0231 147.422 96.3198 147.414 97.8445V110H142.914V98.5405C142.914 97.2644 142.583 96.266 141.92 95.5451C141.266 94.8242 140.358 94.4638 139.198 94.4638C138.411 94.4638 137.711 94.6378 137.098 94.9858C136.493 95.3255 136.016 95.8185 135.668 96.4648C135.329 97.1112 135.159 97.8942 135.159 98.8139ZM159.072 110.336C157.572 110.336 156.23 109.95 155.045 109.18C153.86 108.409 152.924 107.29 152.236 105.824C151.548 104.357 151.205 102.576 151.205 100.479C151.205 98.3582 151.553 96.5684 152.249 95.1101C152.953 93.6435 153.902 92.5373 155.095 91.7915C156.288 91.0375 157.618 90.6605 159.085 90.6605C160.203 90.6605 161.123 90.8511 161.844 91.2322C162.565 91.6051 163.136 92.0567 163.559 92.587C163.982 93.109 164.309 93.602 164.541 94.0661H164.727V84.5455H169.239V110H164.814V106.992H164.541C164.309 107.456 163.973 107.949 163.534 108.471C163.095 108.985 162.515 109.424 161.794 109.789C161.073 110.153 160.166 110.336 159.072 110.336ZM160.327 106.644C161.28 106.644 162.092 106.387 162.763 105.874C163.435 105.352 163.944 104.627 164.292 103.699C164.64 102.77 164.814 101.689 164.814 100.455C164.814 99.2199 164.64 98.1469 164.292 97.2354C163.953 96.324 163.447 95.6155 162.776 95.1101C162.113 94.6046 161.297 94.3519 160.327 94.3519C159.325 94.3519 158.488 94.6129 157.817 95.1349C157.146 95.657 156.64 96.3778 156.3 97.2976C155.961 98.2173 155.791 99.2696 155.791 100.455C155.791 101.648 155.961 102.712 156.3 103.649C156.648 104.577 157.158 105.31 157.829 105.849C158.509 106.379 159.341 106.644 160.327 106.644ZM182.485 110.373C180.571 110.373 178.918 109.975 177.526 109.18C176.142 108.376 175.078 107.241 174.332 105.774C173.586 104.299 173.213 102.563 173.213 100.566C173.213 98.6026 173.586 96.8791 174.332 95.396C175.086 93.9045 176.138 92.7444 177.489 91.9158C178.839 91.079 180.426 90.6605 182.249 90.6605C183.426 90.6605 184.536 90.8511 185.58 91.2322C186.632 91.6051 187.56 92.1851 188.364 92.9723C189.176 93.7595 189.814 94.7621 190.278 95.9801C190.742 97.1899 190.974 98.6316 190.974 100.305V101.685H175.326V98.6523H186.661C186.653 97.7906 186.467 97.0241 186.102 96.353C185.737 95.6735 185.228 95.1391 184.573 94.7496C183.927 94.3602 183.173 94.1655 182.311 94.1655C181.391 94.1655 180.584 94.3892 179.888 94.8366C179.191 95.2758 178.649 95.8558 178.259 96.5767C177.878 97.2893 177.683 98.0723 177.675 98.9258V101.573C177.675 102.683 177.878 103.636 178.284 104.432C178.69 105.219 179.258 105.824 179.987 106.246C180.716 106.661 181.57 106.868 182.547 106.868C183.202 106.868 183.794 106.777 184.325 106.594C184.855 106.404 185.315 106.126 185.704 105.762C186.094 105.397 186.388 104.946 186.587 104.407L190.788 104.879C190.523 105.99 190.017 106.959 189.271 107.788C188.534 108.608 187.589 109.246 186.438 109.702C185.286 110.149 183.968 110.373 182.485 110.373ZM199.28 98.8139V110H194.781V90.9091H199.081V94.1531H199.305C199.744 93.0842 200.444 92.2348 201.405 91.6051C202.375 90.9754 203.572 90.6605 204.997 90.6605C206.315 90.6605 207.462 90.9422 208.44 91.5057C209.426 92.0691 210.188 92.8853 210.727 93.9542C211.274 95.0231 211.543 96.3198 211.535 97.8445V110H207.036V98.5405C207.036 97.2644 206.704 96.266 206.041 95.5451C205.387 94.8242 204.479 94.4638 203.319 94.4638C202.532 94.4638 201.832 94.6378 201.219 94.9858C200.614 95.3255 200.137 95.8185 199.789 96.4648C199.45 97.1112 199.28 97.8942 199.28 98.8139ZM225.642 90.9091V94.3892H214.667V90.9091H225.642ZM217.376 86.3352H221.876V104.258C221.876 104.863 221.967 105.327 222.149 105.65C222.34 105.965 222.588 106.18 222.895 106.296C223.201 106.412 223.541 106.47 223.914 106.47C224.196 106.47 224.453 106.449 224.685 106.408C224.925 106.367 225.107 106.329 225.232 106.296L225.99 109.814C225.749 109.896 225.406 109.988 224.958 110.087C224.519 110.186 223.98 110.244 223.342 110.261C222.215 110.294 221.2 110.124 220.297 109.751C219.394 109.37 218.677 108.782 218.147 107.987C217.625 107.191 217.368 106.197 217.376 105.004V86.3352ZM242.896 84.5455V110H238.285V84.5455H242.896ZM246.771 88.4109V84.5455H267.08V88.4109H259.212V110H254.638V88.4109H246.771ZM301.465 93.1339H296.816C296.684 92.3716 296.439 91.6963 296.083 91.108C295.727 90.5114 295.283 90.0059 294.753 89.5916C294.223 89.1773 293.618 88.8666 292.938 88.6594C292.267 88.444 291.542 88.3363 290.763 88.3363C289.38 88.3363 288.153 88.6843 287.084 89.3803C286.015 90.0681 285.179 91.079 284.574 92.413C283.969 93.7388 283.666 95.3587 283.666 97.2727C283.666 99.2199 283.969 100.861 284.574 102.195C285.187 103.52 286.024 104.523 287.084 105.202C288.153 105.874 289.375 106.209 290.751 106.209C291.513 106.209 292.226 106.11 292.889 105.911C293.56 105.704 294.161 105.401 294.691 105.004C295.229 104.606 295.681 104.117 296.046 103.537C296.419 102.957 296.675 102.294 296.816 101.548L301.465 101.573C301.291 102.783 300.914 103.918 300.334 104.979C299.762 106.039 299.012 106.976 298.084 107.788C297.156 108.591 296.07 109.221 294.828 109.677C293.585 110.124 292.205 110.348 290.689 110.348C288.452 110.348 286.455 109.83 284.698 108.794C282.941 107.759 281.558 106.263 280.547 104.308C279.536 102.352 279.03 100.007 279.03 97.2727C279.03 94.5301 279.54 92.1851 280.559 90.2379C281.578 88.2824 282.966 86.7868 284.723 85.7511C286.479 84.7153 288.468 84.1974 290.689 84.1974C292.106 84.1974 293.423 84.3963 294.641 84.794C295.859 85.1918 296.945 85.7759 297.898 86.5465C298.85 87.3088 299.633 88.2451 300.247 89.3555C300.868 90.4575 301.274 91.717 301.465 93.1339ZM313.816 110.373C311.952 110.373 310.336 109.963 308.969 109.142C307.601 108.322 306.541 107.174 305.787 105.7C305.041 104.225 304.668 102.501 304.668 100.529C304.668 98.5571 305.041 96.8294 305.787 95.3462C306.541 93.863 307.601 92.7113 308.969 91.891C310.336 91.0707 311.952 90.6605 313.816 90.6605C315.68 90.6605 317.296 91.0707 318.663 91.891C320.03 92.7113 321.087 93.863 321.833 95.3462C322.587 96.8294 322.964 98.5571 322.964 100.529C322.964 102.501 322.587 104.225 321.833 105.7C321.087 107.174 320.03 108.322 318.663 109.142C317.296 109.963 315.68 110.373 313.816 110.373ZM313.841 106.768C314.852 106.768 315.697 106.491 316.376 105.936C317.056 105.372 317.561 104.618 317.893 103.674C318.232 102.729 318.402 101.677 318.402 100.517C318.402 99.3484 318.232 98.2919 317.893 97.3473C317.561 96.3944 317.056 95.6362 316.376 95.0728C315.697 94.5094 314.852 94.2276 313.841 94.2276C312.805 94.2276 311.943 94.5094 311.256 95.0728C310.576 95.6362 310.067 96.3944 309.727 97.3473C309.395 98.2919 309.23 99.3484 309.23 100.517C309.23 101.677 309.395 102.729 309.727 103.674C310.067 104.618 310.576 105.372 311.256 105.936C311.943 106.491 312.805 106.768 313.841 106.768ZM331.282 98.8139V110H326.782V90.9091H331.083V94.1531H331.307C331.746 93.0842 332.446 92.2348 333.407 91.6051C334.377 90.9754 335.574 90.6605 336.999 90.6605C338.317 90.6605 339.464 90.9422 340.442 91.5057C341.428 92.0691 342.19 92.8853 342.729 93.9542C343.276 95.0231 343.545 96.3198 343.537 97.8445V110H339.037V98.5405C339.037 97.2644 338.706 96.266 338.043 95.5451C337.389 94.8242 336.481 94.4638 335.321 94.4638C334.534 94.4638 333.834 94.6378 333.221 94.9858C332.616 95.3255 332.139 95.8185 331.791 96.4648C331.452 97.1112 331.282 97.8942 331.282 98.8139ZM363.199 95.9553L359.098 96.4027C358.982 95.9884 358.779 95.599 358.489 95.2344C358.207 94.8698 357.826 94.5756 357.345 94.3519C356.865 94.1282 356.276 94.0163 355.58 94.0163C354.644 94.0163 353.857 94.2193 353.219 94.6254C352.589 95.0314 352.278 95.5575 352.287 96.2038C352.278 96.759 352.481 97.2106 352.896 97.5586C353.318 97.9066 354.014 98.1925 354.984 98.4162L358.24 99.1122C360.047 99.5017 361.389 100.119 362.267 100.964C363.154 101.809 363.601 102.915 363.61 104.283C363.601 105.484 363.249 106.545 362.553 107.464C361.865 108.376 360.908 109.089 359.682 109.602C358.456 110.116 357.047 110.373 355.456 110.373C353.119 110.373 351.239 109.884 349.813 108.906C348.388 107.92 347.539 106.549 347.265 104.792L351.653 104.37C351.852 105.231 352.274 105.882 352.921 106.321C353.567 106.76 354.408 106.98 355.444 106.98C356.513 106.98 357.37 106.76 358.017 106.321C358.671 105.882 358.998 105.339 358.998 104.693C358.998 104.146 358.787 103.694 358.365 103.338C357.95 102.982 357.304 102.708 356.426 102.518L353.169 101.834C351.338 101.453 349.983 100.811 349.105 99.9077C348.227 98.9962 347.792 97.8445 347.8 96.4524C347.792 95.2758 348.111 94.2566 348.757 93.3949C349.412 92.5249 350.319 91.8537 351.479 91.3814C352.647 90.9008 353.994 90.6605 355.518 90.6605C357.756 90.6605 359.516 91.137 360.801 92.0898C362.093 93.0427 362.893 94.3312 363.199 95.9553ZM379.488 101.971V90.9091H383.987V110H379.624V106.607H379.425C378.995 107.676 378.286 108.55 377.3 109.229C376.322 109.909 375.117 110.249 373.683 110.249C372.432 110.249 371.326 109.971 370.365 109.416C369.412 108.852 368.666 108.036 368.127 106.967C367.589 105.89 367.32 104.589 367.32 103.065V90.9091H371.819V102.369C371.819 103.578 372.15 104.54 372.813 105.252C373.476 105.965 374.346 106.321 375.423 106.321C376.086 106.321 376.728 106.159 377.35 105.836C377.971 105.513 378.481 105.033 378.879 104.395C379.285 103.748 379.488 102.94 379.488 101.971ZM393.113 84.5455V110H388.614V84.5455H393.113ZM407.273 90.9091V94.3892H396.298V90.9091H407.273ZM399.007 86.3352H403.507V104.258C403.507 104.863 403.598 105.327 403.78 105.65C403.971 105.965 404.219 106.18 404.526 106.296C404.832 106.412 405.172 106.47 405.545 106.47C405.827 106.47 406.084 106.449 406.316 106.408C406.556 106.367 406.738 106.329 406.862 106.296L407.621 109.814C407.38 109.896 407.036 109.988 406.589 110.087C406.15 110.186 405.611 110.244 404.973 110.261C403.846 110.294 402.831 110.124 401.928 109.751C401.025 109.37 400.308 108.782 399.778 107.987C399.256 107.191 398.999 106.197 399.007 105.004V86.3352ZM411.035 110V90.9091H415.535V110H411.035ZM413.297 88.1996C412.585 88.1996 411.972 87.9634 411.458 87.4911C410.944 87.0105 410.687 86.4347 410.687 85.7635C410.687 85.084 410.944 84.5082 411.458 84.0359C411.972 83.5553 412.585 83.315 413.297 83.315C414.018 83.315 414.632 83.5553 415.137 84.0359C415.651 84.5082 415.908 85.084 415.908 85.7635C415.908 86.4347 415.651 87.0105 415.137 87.4911C414.632 87.9634 414.018 88.1996 413.297 88.1996ZM424.661 98.8139V110H420.161V90.9091H424.462V94.1531H424.686C425.125 93.0842 425.825 92.2348 426.786 91.6051C427.756 90.9754 428.953 90.6605 430.378 90.6605C431.695 90.6605 432.843 90.9422 433.821 91.5057C434.807 92.0691 435.569 92.8853 436.108 93.9542C436.655 95.0231 436.924 96.3198 436.916 97.8445V110H432.416V98.5405C432.416 97.2644 432.085 96.266 431.422 95.5451C430.767 94.8242 429.86 94.4638 428.7 94.4638C427.913 94.4638 427.213 94.6378 426.6 94.9858C425.995 95.3255 425.518 95.8185 425.17 96.4648C424.831 97.1112 424.661 97.8942 424.661 98.8139ZM449.792 117.557C448.176 117.557 446.788 117.337 445.628 116.898C444.468 116.467 443.536 115.887 442.832 115.158C442.128 114.429 441.639 113.621 441.365 112.734L445.417 111.752C445.599 112.125 445.865 112.494 446.213 112.859C446.561 113.232 447.029 113.538 447.617 113.778C448.214 114.027 448.963 114.151 449.867 114.151C451.143 114.151 452.199 113.841 453.036 113.219C453.873 112.606 454.291 111.595 454.291 110.186V106.57H454.068C453.836 107.034 453.496 107.51 453.048 107.999C452.609 108.488 452.025 108.898 451.296 109.229C450.575 109.561 449.668 109.727 448.574 109.727C447.107 109.727 445.778 109.383 444.584 108.695C443.399 107.999 442.455 106.963 441.751 105.588C441.055 104.204 440.706 102.472 440.706 100.392C440.706 98.296 441.055 96.527 441.751 95.0852C442.455 93.6352 443.404 92.5373 444.597 91.7915C445.79 91.0375 447.12 90.6605 448.586 90.6605C449.705 90.6605 450.625 90.8511 451.346 91.2322C452.075 91.6051 452.655 92.0567 453.086 92.587C453.517 93.109 453.844 93.602 454.068 94.0661H454.316V90.9091H458.753V110.311C458.753 111.943 458.364 113.294 457.585 114.363C456.806 115.431 455.741 116.231 454.391 116.761C453.04 117.292 451.507 117.557 449.792 117.557ZM449.829 106.197C450.782 106.197 451.594 105.965 452.265 105.501C452.937 105.037 453.446 104.37 453.794 103.5C454.142 102.63 454.316 101.586 454.316 100.368C454.316 99.1661 454.142 98.1138 453.794 97.2106C453.454 96.3074 452.949 95.6072 452.278 95.1101C451.615 94.6046 450.799 94.3519 449.829 94.3519C448.827 94.3519 447.99 94.6129 447.319 95.1349C446.648 95.657 446.142 96.3737 445.802 97.2852C445.463 98.1883 445.293 99.2158 445.293 100.368C445.293 101.536 445.463 102.559 445.802 103.438C446.15 104.308 446.66 104.987 447.331 105.476C448.011 105.956 448.843 106.197 449.829 106.197Z" fill="#0A2149"/>
</svg>
