<svg width="464" height="106" viewBox="0 0 464 106" fill="none" xmlns="http://www.w3.org/2000/svg">
<path d="M0.166016 26.3242H15.9043L26.8613 61.3535L37.6523 26.3242H52.9258L34.8633 75H18.5605L0.166016 26.3242ZM58.6367 26.3242H72.1504V35.5215H58.6367V26.3242ZM58.6367 39.7383H72.1504V75H58.6367V39.7383ZM80.7832 39.7383H93.3672V45.4824C95.2487 43.1361 97.1523 41.4648 99.0781 40.4688C101.004 39.4505 103.35 38.9414 106.117 38.9414C109.858 38.9414 112.78 40.0592 114.883 42.2949C117.008 44.5085 118.07 47.9395 118.07 52.5879V75H104.49V55.6094C104.49 53.3958 104.081 51.8353 103.262 50.9277C102.443 49.998 101.292 49.5332 99.8086 49.5332C98.1706 49.5332 96.8424 50.153 95.8242 51.3926C94.806 52.6322 94.2969 54.8568 94.2969 58.0664V75H80.7832V39.7383ZM152.436 61.2207L165.285 62.6816C164.577 65.36 163.415 67.6842 161.799 69.6543C160.183 71.6022 158.113 73.1185 155.59 74.2031C153.089 75.2878 149.901 75.8301 146.027 75.8301C142.286 75.8301 139.165 75.487 136.664 74.8008C134.185 74.0924 132.049 72.9635 130.256 71.4141C128.463 69.8424 127.057 68.0052 126.039 65.9023C125.021 63.7995 124.512 61.0104 124.512 57.5352C124.512 53.9049 125.132 50.8835 126.371 48.4707C127.279 46.6999 128.518 45.1172 130.09 43.7227C131.661 42.306 133.277 41.2546 134.938 40.5684C137.572 39.4837 140.947 38.9414 145.064 38.9414C150.82 38.9414 155.202 39.9707 158.213 42.0293C161.245 44.0879 163.37 47.0983 164.588 51.0605L151.871 52.7539C151.473 51.2487 150.742 50.1198 149.68 49.3672C148.639 48.5924 147.234 48.2051 145.463 48.2051C143.227 48.2051 141.412 49.013 140.018 50.6289C138.645 52.2227 137.959 54.6465 137.959 57.9004C137.959 60.8001 138.645 63.0026 140.018 64.5078C141.39 66.013 143.139 66.7656 145.264 66.7656C147.035 66.7656 148.518 66.3118 149.713 65.4043C150.93 64.4967 151.838 63.1022 152.436 61.2207ZM210.641 60.7227H183.547C183.79 62.8919 184.377 64.5078 185.307 65.5703C186.613 67.0977 188.317 67.8613 190.42 67.8613C191.748 67.8613 193.01 67.5293 194.205 66.8652C194.936 66.4447 195.721 65.7031 196.562 64.6406L209.877 65.8691C207.84 69.4108 205.383 71.9564 202.506 73.5059C199.628 75.0332 195.5 75.7969 190.121 75.7969C185.451 75.7969 181.776 75.1439 179.098 73.8379C176.419 72.5098 174.195 70.418 172.424 67.5625C170.675 64.6849 169.801 61.3092 169.801 57.4355C169.801 51.9238 171.561 47.4635 175.08 44.0547C178.622 40.6458 183.503 38.9414 189.723 38.9414C194.77 38.9414 198.754 39.7051 201.676 41.2324C204.598 42.7598 206.822 44.9733 208.35 47.873C209.877 50.7728 210.641 54.5469 210.641 59.1953V60.7227ZM196.895 54.248C196.629 51.6361 195.921 49.7656 194.77 48.6367C193.641 47.5078 192.146 46.9434 190.287 46.9434C188.14 46.9434 186.424 47.7956 185.141 49.5C184.322 50.5625 183.801 52.1452 183.58 54.248H196.895ZM216.85 39.7383H229.434V45.4824C231.315 43.1361 233.219 41.4648 235.145 40.4688C237.07 39.4505 239.417 38.9414 242.184 38.9414C245.924 38.9414 248.846 40.0592 250.949 42.2949C253.074 44.5085 254.137 47.9395 254.137 52.5879V75H240.557V55.6094C240.557 53.3958 240.147 51.8353 239.328 50.9277C238.509 49.998 237.358 49.5332 235.875 49.5332C234.237 49.5332 232.909 50.153 231.891 51.3926C230.872 52.6322 230.363 54.8568 230.363 58.0664V75H216.85V39.7383ZM278.508 26.3242V39.7383H285.945V49.5996H278.508V62.1172C278.508 63.6224 278.652 64.6185 278.939 65.1055C279.382 65.8581 280.157 66.2344 281.264 66.2344C282.26 66.2344 283.654 65.9466 285.447 65.3711L286.443 74.7012C283.101 75.4316 279.98 75.7969 277.08 75.7969C273.715 75.7969 271.236 75.3652 269.643 74.502C268.049 73.6387 266.865 72.3327 266.09 70.584C265.337 68.8132 264.961 65.9577 264.961 62.0176V49.5996H259.98V39.7383H264.961V33.2637L278.508 26.3242ZM325.723 55.1113L338.904 59.0957C338.019 62.7923 336.624 65.8802 334.721 68.3594C332.817 70.8385 330.449 72.709 327.615 73.9707C324.804 75.2324 321.218 75.8633 316.857 75.8633C311.567 75.8633 307.24 75.0996 303.875 73.5723C300.533 72.0228 297.644 69.3112 295.209 65.4375C292.774 61.5638 291.557 56.6055 291.557 50.5625C291.557 42.5052 293.693 36.3184 297.965 32.002C302.259 27.6634 308.324 25.4941 316.16 25.4941C322.292 25.4941 327.106 26.7337 330.604 29.2129C334.123 31.6921 336.735 35.4993 338.439 40.6348L325.158 43.5898C324.693 42.1068 324.206 41.0221 323.697 40.3359C322.856 39.1849 321.827 38.2995 320.609 37.6797C319.392 37.0599 318.031 36.75 316.525 36.75C313.117 36.75 310.505 38.1224 308.689 40.8672C307.317 42.9036 306.631 46.1022 306.631 50.4629C306.631 55.8639 307.45 59.5716 309.088 61.5859C310.726 63.5781 313.028 64.5742 315.994 64.5742C318.872 64.5742 321.041 63.7663 322.502 62.1504C323.985 60.5345 325.059 58.1882 325.723 55.1113ZM343.686 57.4688C343.686 52.0898 345.501 47.6628 349.131 44.1875C352.761 40.6901 357.664 38.9414 363.84 38.9414C370.901 38.9414 376.236 40.9889 379.844 45.084C382.743 48.3822 384.193 52.444 384.193 57.2695C384.193 62.6927 382.389 67.1419 378.781 70.6172C375.195 74.0703 370.226 75.7969 363.873 75.7969C358.206 75.7969 353.624 74.3581 350.127 71.4805C345.833 67.9167 343.686 63.2461 343.686 57.4688ZM357.232 57.4355C357.232 60.5788 357.863 62.903 359.125 64.4082C360.409 65.9134 362.014 66.666 363.939 66.666C365.887 66.666 367.481 65.9245 368.721 64.4414C369.982 62.9583 370.613 60.5788 370.613 57.3027C370.613 54.248 369.982 51.9792 368.721 50.4961C367.459 48.9909 365.898 48.2383 364.039 48.2383C362.069 48.2383 360.442 49.002 359.158 50.5293C357.874 52.0345 357.232 54.3366 357.232 57.4355ZM390.834 39.7383H403.484V45.5156C404.702 43.0143 405.952 41.2988 407.236 40.3691C408.542 39.4173 410.147 38.9414 412.051 38.9414C414.043 38.9414 416.223 39.5612 418.592 40.8008L414.408 50.4297C412.814 49.7656 411.553 49.4336 410.623 49.4336C408.852 49.4336 407.48 50.1641 406.506 51.625C405.111 53.6836 404.414 57.5352 404.414 63.1797V75H390.834V39.7383ZM461.191 60.7227H434.098C434.341 62.8919 434.928 64.5078 435.857 65.5703C437.163 67.0977 438.868 67.8613 440.971 67.8613C442.299 67.8613 443.561 67.5293 444.756 66.8652C445.486 66.4447 446.272 65.7031 447.113 64.6406L460.428 65.8691C458.391 69.4108 455.934 71.9564 453.057 73.5059C450.179 75.0332 446.051 75.7969 440.672 75.7969C436.001 75.7969 432.327 75.1439 429.648 73.8379C426.97 72.5098 424.745 70.418 422.975 67.5625C421.226 64.6849 420.352 61.3092 420.352 57.4355C420.352 51.9238 422.111 47.4635 425.631 44.0547C429.173 40.6458 434.053 38.9414 440.273 38.9414C445.32 38.9414 449.305 39.7051 452.227 41.2324C455.148 42.7598 457.373 44.9733 458.9 47.873C460.428 50.7728 461.191 54.5469 461.191 59.1953V60.7227ZM447.445 54.248C447.18 51.6361 446.471 49.7656 445.32 48.6367C444.191 47.5078 442.697 46.9434 440.838 46.9434C438.691 46.9434 436.975 47.7956 435.691 49.5C434.872 50.5625 434.352 52.1452 434.131 54.248H447.445Z" fill="#0A2149"/>
<path d="M17.087 81.8182V100H13.7933V81.8182H17.087ZM23.7254 92.0099V100H20.5116V86.3636H23.5834V88.6808H23.7432C24.0568 87.9173 24.557 87.3106 25.2435 86.8608C25.936 86.411 26.7912 86.1861 27.8092 86.1861C28.7503 86.1861 29.57 86.3873 30.2684 86.7898C30.9727 87.1922 31.5172 87.7752 31.9019 88.5387C32.2925 89.3022 32.4849 90.2285 32.479 91.3175V100H29.2652V91.8146C29.2652 90.9032 29.0284 90.19 28.555 89.6751C28.0874 89.1602 27.4393 88.9027 26.6107 88.9027C26.0484 88.9027 25.5483 89.027 25.1104 89.2756C24.6783 89.5182 24.338 89.8704 24.0894 90.332C23.8467 90.7937 23.7254 91.353 23.7254 92.0099ZM42.653 86.3636V88.8494H34.5919V86.3636H42.653ZM36.6072 100V85.0763C36.6072 84.159 36.7965 83.3955 37.1753 82.7859C37.56 82.1763 38.075 81.7205 38.7201 81.4187C39.3652 81.1168 40.0814 80.9659 40.8685 80.9659C41.4249 80.9659 41.9191 81.0103 42.3511 81.0991C42.7832 81.1879 43.1028 81.2678 43.3099 81.3388L42.6707 83.8246C42.5346 83.7831 42.363 83.7417 42.1558 83.7003C41.9487 83.6529 41.7178 83.6293 41.4633 83.6293C40.8656 83.6293 40.4424 83.7743 40.1938 84.0643C39.9511 84.3484 39.8298 84.7567 39.8298 85.2894V100H36.6072ZM50.6053 100.266C49.2736 100.266 48.1195 99.9734 47.1429 99.3874C46.1664 98.8015 45.4088 97.9818 44.8702 96.9283C44.3375 95.8748 44.0712 94.6437 44.0712 93.2351C44.0712 91.8265 44.3375 90.5924 44.8702 89.533C45.4088 88.4736 46.1664 87.6509 47.1429 87.065C48.1195 86.479 49.2736 86.1861 50.6053 86.1861C51.937 86.1861 53.0911 86.479 54.0676 87.065C55.0442 87.6509 55.7988 88.4736 56.3315 89.533C56.8701 90.5924 57.1394 91.8265 57.1394 93.2351C57.1394 94.6437 56.8701 95.8748 56.3315 96.9283C55.7988 97.9818 55.0442 98.8015 54.0676 99.3874C53.0911 99.9734 51.937 100.266 50.6053 100.266ZM50.623 97.6918C51.3451 97.6918 51.9488 97.4935 52.4341 97.0969C52.9194 96.6945 53.2805 96.1559 53.5172 95.4812C53.7599 94.8065 53.8812 94.0548 53.8812 93.2262C53.8812 92.3917 53.7599 91.6371 53.5172 90.9624C53.2805 90.2817 52.9194 89.7402 52.4341 89.3377C51.9488 88.9353 51.3451 88.734 50.623 88.734C49.8832 88.734 49.2677 88.9353 48.7765 89.3377C48.2911 89.7402 47.9271 90.2817 47.6845 90.9624C47.4477 91.6371 47.3294 92.3917 47.3294 93.2262C47.3294 94.0548 47.4477 94.8065 47.6845 95.4812C47.9271 96.1559 48.2911 96.6945 48.7765 97.0969C49.2677 97.4935 49.8832 97.6918 50.623 97.6918ZM59.8671 100V86.3636H62.9832V88.6364H63.1253C63.3738 87.8492 63.8 87.2425 64.4037 86.8164C65.0133 86.3844 65.7087 86.1683 66.49 86.1683C66.6675 86.1683 66.8658 86.1772 67.0848 86.195C67.3097 86.2068 67.4961 86.2275 67.6441 86.2571V89.2134C67.508 89.1661 67.2919 89.1246 66.996 89.0891C66.706 89.0477 66.4249 89.027 66.1526 89.027C65.5667 89.027 65.0399 89.1542 64.5724 89.4087C64.1107 89.6573 63.7467 90.0036 63.4804 90.4474C63.214 90.8913 63.0809 91.4033 63.0809 91.9833V100H59.8671ZM69.7792 100V86.3636H72.8509V88.6808H73.0107C73.2948 87.8995 73.7654 87.2899 74.4223 86.8519C75.0793 86.408 75.8635 86.1861 76.7749 86.1861C77.6982 86.1861 78.4765 86.411 79.1098 86.8608C79.749 87.3047 80.1988 87.9113 80.4593 88.6808H80.6013C80.9031 87.9232 81.4121 87.3195 82.1283 86.8697C82.8503 86.4139 83.7056 86.1861 84.694 86.1861C85.9487 86.1861 86.9726 86.5826 87.7657 87.3757C88.5588 88.1688 88.9553 89.3259 88.9553 90.8469V100H85.7327V91.3441C85.7327 90.4978 85.5078 89.8793 85.058 89.4886C84.6082 89.0921 84.0577 88.8938 83.4067 88.8938C82.6314 88.8938 82.0247 89.1365 81.5867 89.6218C81.1547 90.1012 80.9387 90.7256 80.9387 91.495V100H77.787V91.2109C77.787 90.5066 77.574 89.9444 77.1478 89.5241C76.7276 89.1039 76.1772 88.8938 75.4965 88.8938C75.0349 88.8938 74.6147 89.0122 74.2359 89.2489C73.8571 89.4798 73.5552 89.8082 73.3303 90.2344C73.1054 90.6546 72.993 91.1458 72.993 91.7081V100H69.7792ZM96.1397 100.275C95.2756 100.275 94.4973 100.121 93.8049 99.8136C93.1183 99.4999 92.5738 99.0382 92.1713 98.4286C91.7748 97.819 91.5765 97.0674 91.5765 96.1737C91.5765 95.4042 91.7186 94.768 92.0027 94.2649C92.2868 93.7618 92.6744 93.3594 93.1657 93.0575C93.6569 92.7557 94.2103 92.5278 94.8258 92.3739C95.4473 92.2141 96.0894 92.0987 96.7523 92.0277C97.5513 91.9448 98.1994 91.8709 98.6966 91.8058C99.1937 91.7347 99.5547 91.6282 99.7797 91.4862C100.01 91.3382 100.126 91.1103 100.126 90.8026V90.7493C100.126 90.0805 99.9276 89.5626 99.5311 89.1957C99.1345 88.8287 98.5634 88.6452 97.8176 88.6452C97.0305 88.6452 96.4061 88.8169 95.9444 89.1602C95.4887 89.5034 95.1809 89.9089 95.0211 90.3764L92.0204 89.9503C92.2572 89.1217 92.6478 88.4292 93.1923 87.8729C93.7368 87.3106 94.4026 86.8904 95.1898 86.6122C95.977 86.3281 96.847 86.1861 97.7999 86.1861C98.4569 86.1861 99.1109 86.263 99.7619 86.4169C100.413 86.5708 101.008 86.8253 101.546 87.1804C102.085 87.5296 102.517 88.006 102.843 88.6097C103.174 89.2134 103.34 89.968 103.34 90.8736V100H100.25V98.1268H100.144C99.9483 98.5056 99.6731 98.8607 99.318 99.1921C98.9688 99.5176 98.5279 99.781 97.9952 99.9822C97.4685 100.178 96.85 100.275 96.1397 100.275ZM96.9743 97.9137C97.6194 97.9137 98.1787 97.7865 98.6522 97.532C99.1257 97.2715 99.4896 96.9283 99.7441 96.5021C100.005 96.076 100.135 95.6114 100.135 95.1083V93.5014C100.034 93.5843 99.8625 93.6612 99.6199 93.7322C99.3831 93.8033 99.1168 93.8654 98.8208 93.9187C98.5249 93.9719 98.2319 94.0193 97.9419 94.0607C97.6519 94.1022 97.4004 94.1377 97.1873 94.1673C96.7079 94.2324 96.2788 94.3389 95.9 94.4869C95.5212 94.6348 95.2224 94.842 95.0034 95.1083C94.7844 95.3687 94.6749 95.7061 94.6749 96.1204C94.6749 96.7122 94.8909 97.1591 95.323 97.4609C95.755 97.7628 96.3055 97.9137 96.9743 97.9137ZM113.381 86.3636V88.8494H105.541V86.3636H113.381ZM107.477 83.0966H110.691V95.8984C110.691 96.3305 110.756 96.6619 110.886 96.8928C111.022 97.1177 111.2 97.2715 111.419 97.3544C111.637 97.4373 111.88 97.4787 112.146 97.4787C112.348 97.4787 112.531 97.4639 112.697 97.4343C112.869 97.4047 112.999 97.3781 113.088 97.3544L113.629 99.8668C113.457 99.926 113.212 99.9911 112.892 100.062C112.579 100.133 112.194 100.175 111.738 100.186C110.933 100.21 110.208 100.089 109.563 99.8224C108.918 99.5502 108.406 99.13 108.027 98.5618C107.654 97.9936 107.471 97.2834 107.477 96.4311V83.0966ZM116.068 100V86.3636H119.282V100H116.068ZM117.684 84.4283C117.175 84.4283 116.737 84.2596 116.37 83.9222C116.003 83.579 115.82 83.1676 115.82 82.6882C115.82 82.2029 116.003 81.7915 116.37 81.4542C116.737 81.1109 117.175 80.9393 117.684 80.9393C118.199 80.9393 118.637 81.1109 118.998 81.4542C119.365 81.7915 119.548 82.2029 119.548 82.6882C119.548 83.1676 119.365 83.579 118.998 83.9222C118.637 84.2596 118.199 84.4283 117.684 84.4283ZM128.535 100.266C127.203 100.266 126.049 99.9734 125.073 99.3874C124.096 98.8015 123.338 97.9818 122.8 96.9283C122.267 95.8748 122.001 94.6437 122.001 93.2351C122.001 91.8265 122.267 90.5924 122.8 89.533C123.338 88.4736 124.096 87.6509 125.073 87.065C126.049 86.479 127.203 86.1861 128.535 86.1861C129.867 86.1861 131.021 86.479 131.997 87.065C132.974 87.6509 133.729 88.4736 134.261 89.533C134.8 90.5924 135.069 91.8265 135.069 93.2351C135.069 94.6437 134.8 95.8748 134.261 96.9283C133.729 97.9818 132.974 98.8015 131.997 99.3874C131.021 99.9734 129.867 100.266 128.535 100.266ZM128.553 97.6918C129.275 97.6918 129.878 97.4935 130.364 97.0969C130.849 96.6945 131.21 96.1559 131.447 95.4812C131.69 94.8065 131.811 94.0548 131.811 93.2262C131.811 92.3917 131.69 91.6371 131.447 90.9624C131.21 90.2817 130.849 89.7402 130.364 89.3377C129.878 88.9353 129.275 88.734 128.553 88.734C127.813 88.734 127.197 88.9353 126.706 89.3377C126.221 89.7402 125.857 90.2817 125.614 90.9624C125.377 91.6371 125.259 92.3917 125.259 93.2262C125.259 94.0548 125.377 94.8065 125.614 95.4812C125.857 96.1559 126.221 96.6945 126.706 97.0969C127.197 97.4935 127.813 97.6918 128.553 97.6918ZM141.011 92.0099V100H137.797V86.3636H140.869V88.6808H141.028C141.342 87.9173 141.842 87.3106 142.529 86.8608C143.221 86.411 144.076 86.1861 145.094 86.1861C146.035 86.1861 146.855 86.3873 147.554 86.7898C148.258 87.1922 148.802 87.7752 149.187 88.5387C149.578 89.3022 149.77 90.2285 149.764 91.3175V100H146.55V91.8146C146.55 90.9032 146.314 90.19 145.84 89.6751C145.373 89.1602 144.724 88.9027 143.896 88.9027C143.334 88.9027 142.833 89.027 142.396 89.2756C141.963 89.5182 141.623 89.8704 141.375 90.332C141.132 90.7937 141.011 91.353 141.011 92.0099ZM158.575 84.5792V81.8182H173.082V84.5792H167.462V100H164.195V84.5792H158.575ZM179.796 100.266C178.428 100.266 177.248 99.9822 176.253 99.4141C175.265 98.84 174.504 98.0291 173.972 96.9815C173.439 95.928 173.173 94.6881 173.173 93.2617C173.173 91.859 173.439 90.628 173.972 89.5685C174.51 88.5032 175.262 87.6746 176.227 87.0827C177.191 86.485 178.325 86.1861 179.627 86.1861C180.467 86.1861 181.26 86.3222 182.006 86.5945C182.758 86.8608 183.421 87.2751 183.995 87.8374C184.575 88.3996 185.031 89.1158 185.362 89.9858C185.693 90.8499 185.859 91.8797 185.859 93.0753V94.0607H174.682V91.8945H182.779C182.773 91.279 182.64 90.7315 182.379 90.2521C182.119 89.7668 181.755 89.3851 181.287 89.1069C180.825 88.8287 180.287 88.6896 179.671 88.6896C179.014 88.6896 178.437 88.8494 177.94 89.169C177.443 89.4827 177.055 89.897 176.777 90.4119C176.505 90.9209 176.366 91.4802 176.36 92.0898V93.9808C176.36 94.7739 176.505 95.4545 176.795 96.0227C177.085 96.585 177.49 97.017 178.011 97.3189C178.532 97.6148 179.142 97.7628 179.84 97.7628C180.308 97.7628 180.731 97.6977 181.11 97.5675C181.488 97.4313 181.817 97.2331 182.095 96.9727C182.373 96.7122 182.583 96.3897 182.725 96.005L185.726 96.3423C185.537 97.1354 185.176 97.8279 184.643 98.4197C184.116 99.0057 183.441 99.4614 182.619 99.7869C181.796 100.107 180.855 100.266 179.796 100.266ZM194.526 100.266C193.165 100.266 191.996 99.9674 191.019 99.3697C190.049 98.7719 189.3 97.9463 188.773 96.8928C188.253 95.8333 187.992 94.6141 187.992 93.2351C187.992 91.8501 188.258 90.628 188.791 89.5685C189.324 88.5032 190.075 87.6746 191.046 87.0827C192.023 86.485 193.177 86.1861 194.508 86.1861C195.615 86.1861 196.595 86.3903 197.447 86.7987C198.305 87.2011 198.989 87.7723 199.498 88.5121C200.007 89.246 200.297 90.1042 200.368 91.0866H197.296C197.172 90.4297 196.876 89.8822 196.408 89.4442C195.947 89.0004 195.328 88.7784 194.553 88.7784C193.896 88.7784 193.319 88.956 192.822 89.3111C192.324 89.6603 191.937 90.1634 191.659 90.8203C191.386 91.4773 191.25 92.2644 191.25 93.1818C191.25 94.111 191.386 94.91 191.659 95.5788C191.931 96.2417 192.313 96.7537 192.804 97.1147C193.301 97.4698 193.884 97.6474 194.553 97.6474C195.026 97.6474 195.449 97.5586 195.822 97.381C196.201 97.1976 196.518 96.9342 196.772 96.5909C197.027 96.2476 197.201 95.8304 197.296 95.3391H200.368C200.291 96.3039 200.007 97.1591 199.516 97.9048C199.024 98.6446 198.355 99.2247 197.509 99.6449C196.663 100.059 195.668 100.266 194.526 100.266ZM206.221 92.0099V100H203.007V81.8182H206.15V88.6808H206.309C206.629 87.9113 207.123 87.3047 207.792 86.8608C208.467 86.411 209.325 86.1861 210.366 86.1861C211.313 86.1861 212.139 86.3844 212.843 86.7809C213.548 87.1774 214.092 87.7575 214.477 88.521C214.868 89.2844 215.063 90.2166 215.063 91.3175V100H211.849V91.8146C211.849 90.8973 211.612 90.1841 211.139 89.6751C210.671 89.1602 210.014 88.9027 209.168 88.9027C208.6 88.9027 208.091 89.027 207.641 89.2756C207.197 89.5182 206.848 89.8704 206.593 90.332C206.345 90.7937 206.221 91.353 206.221 92.0099ZM221.553 92.0099V100H218.339V86.3636H221.411V88.6808H221.57C221.884 87.9173 222.384 87.3106 223.071 86.8608C223.763 86.411 224.618 86.1861 225.636 86.1861C226.577 86.1861 227.397 86.3873 228.096 86.7898C228.8 87.1922 229.344 87.7752 229.729 88.5387C230.12 89.3022 230.312 90.2285 230.306 91.3175V100H227.092V91.8146C227.092 90.9032 226.856 90.19 226.382 89.6751C225.915 89.1602 225.266 88.9027 224.438 88.9027C223.876 88.9027 223.375 89.027 222.938 89.2756C222.505 89.5182 222.165 89.8704 221.917 90.332C221.674 90.7937 221.553 91.353 221.553 92.0099ZM239.521 100.266C238.19 100.266 237.036 99.9734 236.059 99.3874C235.082 98.8015 234.325 97.9818 233.786 96.9283C233.254 95.8748 232.987 94.6437 232.987 93.2351C232.987 91.8265 233.254 90.5924 233.786 89.533C234.325 88.4736 235.082 87.6509 236.059 87.065C237.036 86.479 238.19 86.1861 239.521 86.1861C240.853 86.1861 242.007 86.479 242.984 87.065C243.96 87.6509 244.715 88.4736 245.248 89.533C245.786 90.5924 246.055 91.8265 246.055 93.2351C246.055 94.6437 245.786 95.8748 245.248 96.9283C244.715 97.9818 243.96 98.8015 242.984 99.3874C242.007 99.9734 240.853 100.266 239.521 100.266ZM239.539 97.6918C240.261 97.6918 240.865 97.4935 241.35 97.0969C241.835 96.6945 242.196 96.1559 242.433 95.4812C242.676 94.8065 242.797 94.0548 242.797 93.2262C242.797 92.3917 242.676 91.6371 242.433 90.9624C242.196 90.2817 241.835 89.7402 241.35 89.3377C240.865 88.9353 240.261 88.734 239.539 88.734C238.799 88.734 238.184 88.9353 237.692 89.3377C237.207 89.7402 236.843 90.2817 236.6 90.9624C236.364 91.6371 236.245 92.3917 236.245 93.2262C236.245 94.0548 236.364 94.8065 236.6 95.4812C236.843 96.1559 237.207 96.6945 237.692 97.0969C238.184 97.4935 238.799 97.6918 239.539 97.6918ZM251.997 81.8182V100H248.783V81.8182H251.997ZM261.25 100.266C259.918 100.266 258.764 99.9734 257.787 99.3874C256.811 98.8015 256.053 97.9818 255.515 96.9283C254.982 95.8748 254.716 94.6437 254.716 93.2351C254.716 91.8265 254.982 90.5924 255.515 89.533C256.053 88.4736 256.811 87.6509 257.787 87.065C258.764 86.479 259.918 86.1861 261.25 86.1861C262.581 86.1861 263.736 86.479 264.712 87.065C265.689 87.6509 266.443 88.4736 266.976 89.533C267.515 90.5924 267.784 91.8265 267.784 93.2351C267.784 94.6437 267.515 95.8748 266.976 96.9283C266.443 97.9818 265.689 98.8015 264.712 99.3874C263.736 99.9734 262.581 100.266 261.25 100.266ZM261.268 97.6918C261.99 97.6918 262.593 97.4935 263.079 97.0969C263.564 96.6945 263.925 96.1559 264.162 95.4812C264.404 94.8065 264.526 94.0548 264.526 93.2262C264.526 92.3917 264.404 91.6371 264.162 90.9624C263.925 90.2817 263.564 89.7402 263.079 89.3377C262.593 88.9353 261.99 88.734 261.268 88.734C260.528 88.734 259.912 88.9353 259.421 89.3377C258.936 89.7402 258.572 90.2817 258.329 90.9624C258.092 91.6371 257.974 92.3917 257.974 93.2262C257.974 94.0548 258.092 94.8065 258.329 95.4812C258.572 96.1559 258.936 96.6945 259.421 97.0969C259.912 97.4935 260.528 97.6918 261.268 97.6918ZM276.442 105.398C275.288 105.398 274.297 105.241 273.468 104.927C272.639 104.619 271.974 104.205 271.47 103.684C270.967 103.163 270.618 102.586 270.423 101.953L273.317 101.252C273.447 101.518 273.637 101.781 273.885 102.042C274.134 102.308 274.468 102.527 274.888 102.699C275.315 102.876 275.85 102.965 276.495 102.965C277.407 102.965 278.161 102.743 278.759 102.299C279.357 101.861 279.656 101.139 279.656 100.133V97.5497H279.496C279.33 97.8812 279.088 98.2215 278.768 98.5707C278.454 98.9199 278.037 99.2128 277.516 99.4496C277.001 99.6863 276.353 99.8047 275.572 99.8047C274.524 99.8047 273.574 99.5591 272.722 99.0678C271.876 98.5707 271.201 97.8308 270.698 96.8484C270.201 95.86 269.952 94.623 269.952 93.1374C269.952 91.64 270.201 90.3764 270.698 89.3466C271.201 88.3108 271.879 87.5266 272.731 86.994C273.583 86.4554 274.533 86.1861 275.581 86.1861C276.38 86.1861 277.037 86.3222 277.552 86.5945C278.073 86.8608 278.487 87.1834 278.795 87.5621C279.102 87.935 279.336 88.2872 279.496 88.6186H279.674V86.3636H282.843V100.222C282.843 101.388 282.565 102.353 282.008 103.116C281.452 103.88 280.692 104.451 279.727 104.83C278.762 105.208 277.667 105.398 276.442 105.398ZM276.469 97.2834C277.149 97.2834 277.729 97.1177 278.209 96.7862C278.688 96.4548 279.052 95.9783 279.301 95.3569C279.549 94.7354 279.674 93.9897 279.674 93.1197C279.674 92.2615 279.549 91.5098 279.301 90.8647C279.058 90.2196 278.697 89.7195 278.218 89.3643C277.744 89.0033 277.161 88.8228 276.469 88.8228C275.753 88.8228 275.155 89.0092 274.675 89.3821C274.196 89.755 273.835 90.2669 273.592 90.918C273.35 91.5631 273.228 92.297 273.228 93.1197C273.228 93.9542 273.35 94.6851 273.592 95.3125C273.841 95.9339 274.205 96.4193 274.684 96.7685C275.17 97.1117 275.764 97.2834 276.469 97.2834ZM288.134 105.114C287.696 105.114 287.291 105.078 286.918 105.007C286.551 104.942 286.258 104.865 286.039 104.776L286.785 102.273C287.252 102.409 287.67 102.474 288.036 102.468C288.403 102.462 288.726 102.347 289.004 102.122C289.288 101.903 289.528 101.536 289.723 101.021L289.998 100.284L285.054 86.3636H288.463L291.605 96.6619H291.747L294.899 86.3636H298.317L292.857 101.651C292.603 102.373 292.265 102.992 291.845 103.507C291.425 104.028 290.91 104.424 290.3 104.696C289.697 104.975 288.975 105.114 288.134 105.114ZM315.007 89.5863V92.2319H306.822V89.5863H315.007ZM340.294 87.9528H336.973C336.879 87.4083 336.704 86.9259 336.45 86.5057C336.195 86.0795 335.878 85.7185 335.5 85.4226C335.121 85.1267 334.689 84.9047 334.203 84.7567C333.724 84.6029 333.206 84.5259 332.65 84.5259C331.661 84.5259 330.786 84.7745 330.022 85.2717C329.259 85.7629 328.661 86.485 328.229 87.4379C327.797 88.3848 327.581 89.5419 327.581 90.9091C327.581 92.3 327.797 93.4718 328.229 94.4247C328.667 95.3717 329.264 96.0878 330.022 96.5732C330.786 97.0526 331.658 97.2923 332.641 97.2923C333.185 97.2923 333.694 97.2212 334.168 97.0792C334.647 96.9312 335.076 96.7152 335.455 96.4311C335.84 96.147 336.163 95.7978 336.423 95.3835C336.689 94.9692 336.873 94.4957 336.973 93.9631L340.294 93.9808C340.169 94.8449 339.9 95.6558 339.486 96.4134C339.077 97.1709 338.542 97.8397 337.879 98.4197C337.216 98.9938 336.441 99.4437 335.553 99.7692C334.665 100.089 333.68 100.249 332.597 100.249C330.999 100.249 329.572 99.8787 328.317 99.1388C327.063 98.399 326.074 97.3307 325.352 95.9339C324.63 94.5372 324.269 92.8622 324.269 90.9091C324.269 88.95 324.633 87.2751 325.361 85.8842C326.089 84.4875 327.08 83.4192 328.335 82.6793C329.59 81.9395 331.01 81.5696 332.597 81.5696C333.609 81.5696 334.55 81.7116 335.42 81.9957C336.29 82.2798 337.065 82.6971 337.746 83.2475C338.426 83.792 338.986 84.4608 339.424 85.2539C339.868 86.0411 340.158 86.9407 340.294 87.9528ZM349.116 100.266C347.784 100.266 346.63 99.9734 345.654 99.3874C344.677 98.8015 343.92 97.9818 343.381 96.9283C342.848 95.8748 342.582 94.6437 342.582 93.2351C342.582 91.8265 342.848 90.5924 343.381 89.533C343.92 88.4736 344.677 87.6509 345.654 87.065C346.63 86.479 347.784 86.1861 349.116 86.1861C350.448 86.1861 351.602 86.479 352.578 87.065C353.555 87.6509 354.31 88.4736 354.842 89.533C355.381 90.5924 355.65 91.8265 355.65 93.2351C355.65 94.6437 355.381 95.8748 354.842 96.9283C354.31 97.9818 353.555 98.8015 352.578 99.3874C351.602 99.9734 350.448 100.266 349.116 100.266ZM349.134 97.6918C349.856 97.6918 350.46 97.4935 350.945 97.0969C351.43 96.6945 351.791 96.1559 352.028 95.4812C352.271 94.8065 352.392 94.0548 352.392 93.2262C352.392 92.3917 352.271 91.6371 352.028 90.9624C351.791 90.2817 351.43 89.7402 350.945 89.3377C350.46 88.9353 349.856 88.734 349.134 88.734C348.394 88.734 347.778 88.9353 347.287 89.3377C346.802 89.7402 346.438 90.2817 346.195 90.9624C345.958 91.6371 345.84 92.3917 345.84 93.2262C345.84 94.0548 345.958 94.8065 346.195 95.4812C346.438 96.1559 346.802 96.6945 347.287 97.0969C347.778 97.4935 348.394 97.6918 349.134 97.6918ZM361.592 92.0099V100H358.378V86.3636H361.45V88.6808H361.609C361.923 87.9173 362.423 87.3106 363.11 86.8608C363.802 86.411 364.657 86.1861 365.675 86.1861C366.616 86.1861 367.436 86.3873 368.135 86.7898C368.839 87.1922 369.383 87.7752 369.768 88.5387C370.159 89.3022 370.351 90.2285 370.345 91.3175V100H367.131V91.8146C367.131 90.9032 366.895 90.19 366.421 89.6751C365.954 89.1602 365.306 88.9027 364.477 88.9027C363.915 88.9027 363.415 89.027 362.977 89.2756C362.545 89.5182 362.204 89.8704 361.956 90.332C361.713 90.7937 361.592 91.353 361.592 92.0099ZM384.39 89.968L381.46 90.2876C381.377 89.9917 381.232 89.7135 381.025 89.4531C380.824 89.1927 380.552 88.9826 380.208 88.8228C379.865 88.663 379.445 88.5831 378.948 88.5831C378.279 88.5831 377.717 88.7281 377.261 89.0181C376.811 89.3081 376.589 89.6839 376.595 90.1456C376.589 90.5421 376.734 90.8647 377.03 91.1133C377.332 91.3619 377.829 91.5661 378.522 91.7259L380.848 92.223C382.138 92.5012 383.097 92.9421 383.724 93.5458C384.357 94.1495 384.677 94.9396 384.683 95.9162C384.677 96.7744 384.425 97.532 383.928 98.1889C383.437 98.84 382.753 99.349 381.877 99.7159C381.002 100.083 379.995 100.266 378.859 100.266C377.19 100.266 375.846 99.9171 374.828 99.2188C373.81 98.5144 373.204 97.5349 373.009 96.2802L376.142 95.9783C376.284 96.5939 376.586 97.0585 377.048 97.3722C377.51 97.6858 378.11 97.8427 378.85 97.8427C379.614 97.8427 380.226 97.6858 380.688 97.3722C381.155 97.0585 381.389 96.6708 381.389 96.2092C381.389 95.8185 381.238 95.496 380.936 95.2415C380.641 94.987 380.179 94.7917 379.551 94.6555L377.225 94.1673C375.917 93.895 374.95 93.4363 374.322 92.7912C373.695 92.1402 373.384 91.3175 373.39 90.3232C373.384 89.4827 373.612 88.7547 374.074 88.1392C374.541 87.5178 375.19 87.0384 376.018 86.701C376.853 86.3577 377.814 86.1861 378.903 86.1861C380.501 86.1861 381.759 86.5264 382.676 87.207C383.6 87.8877 384.171 88.808 384.39 89.968ZM396.024 94.2649V86.3636H399.238V100H396.122V97.5763H395.98C395.672 98.3398 395.166 98.9643 394.462 99.4496C393.763 99.9349 392.902 100.178 391.878 100.178C390.985 100.178 390.195 99.9793 389.508 99.5827C388.827 99.1803 388.295 98.5973 387.91 97.8338C387.525 97.0644 387.333 96.1352 387.333 95.0462V86.3636H390.547V94.549C390.547 95.4131 390.783 96.0997 391.257 96.6087C391.73 97.1177 392.352 97.3722 393.121 97.3722C393.595 97.3722 394.053 97.2567 394.497 97.0259C394.941 96.7951 395.305 96.4518 395.589 95.9961C395.879 95.5344 396.024 94.9574 396.024 94.2649ZM405.757 81.8182V100H402.543V81.8182H405.757ZM415.871 86.3636V88.8494H408.032V86.3636H415.871ZM409.967 83.0966H413.181V95.8984C413.181 96.3305 413.246 96.6619 413.376 96.8928C413.512 97.1177 413.69 97.2715 413.909 97.3544C414.128 97.4373 414.37 97.4787 414.637 97.4787C414.838 97.4787 415.021 97.4639 415.187 97.4343C415.359 97.4047 415.489 97.3781 415.578 97.3544L416.119 99.8668C415.948 99.926 415.702 99.9911 415.382 100.062C415.069 100.133 414.684 100.175 414.228 100.186C413.423 100.21 412.698 100.089 412.053 99.8224C411.408 99.5502 410.896 99.13 410.517 98.5618C410.145 97.9936 409.961 97.2834 409.967 96.4311V83.0966ZM422.483 100.275C421.618 100.275 420.84 100.121 420.148 99.8136C419.461 99.4999 418.917 99.0382 418.514 98.4286C418.118 97.819 417.919 97.0674 417.919 96.1737C417.919 95.4042 418.061 94.768 418.345 94.2649C418.63 93.7618 419.017 93.3594 419.508 93.0575C420 92.7557 420.553 92.5278 421.169 92.3739C421.79 92.2141 422.432 92.0987 423.095 92.0277C423.894 91.9448 424.542 91.8709 425.039 91.8058C425.536 91.7347 425.898 91.6282 426.122 91.4862C426.353 91.3382 426.469 91.1103 426.469 90.8026V90.7493C426.469 90.0805 426.27 89.5626 425.874 89.1957C425.477 88.8287 424.906 88.6452 424.16 88.6452C423.373 88.6452 422.749 88.8169 422.287 89.1602C421.831 89.5034 421.524 89.9089 421.364 90.3764L418.363 89.9503C418.6 89.1217 418.991 88.4292 419.535 87.8729C420.08 87.3106 420.745 86.8904 421.533 86.6122C422.32 86.3281 423.19 86.1861 424.143 86.1861C424.8 86.1861 425.454 86.263 426.105 86.4169C426.756 86.5708 427.351 86.8253 427.889 87.1804C428.428 87.5296 428.86 88.006 429.185 88.6097C429.517 89.2134 429.682 89.968 429.682 90.8736V100H426.593V98.1268H426.486C426.291 98.5056 426.016 98.8607 425.661 99.1921C425.312 99.5176 424.871 99.781 424.338 99.9822C423.811 100.178 423.193 100.275 422.483 100.275ZM423.317 97.9137C423.962 97.9137 424.521 97.7865 424.995 97.532C425.468 97.2715 425.832 96.9283 426.087 96.5021C426.347 96.076 426.478 95.6114 426.478 95.1083V93.5014C426.377 93.5843 426.205 93.6612 425.963 93.7322C425.726 93.8033 425.46 93.8654 425.164 93.9187C424.868 93.9719 424.575 94.0193 424.285 94.0607C423.995 94.1022 423.743 94.1377 423.53 94.1673C423.051 94.2324 422.622 94.3389 422.243 94.4869C421.864 94.6348 421.565 94.842 421.346 95.1083C421.127 95.3687 421.018 95.7061 421.018 96.1204C421.018 96.7122 421.234 97.1591 421.666 97.4609C422.098 97.7628 422.648 97.9137 423.317 97.9137ZM436.128 92.0099V100H432.914V86.3636H435.986V88.6808H436.146C436.459 87.9173 436.959 87.3106 437.646 86.8608C438.338 86.411 439.194 86.1861 440.212 86.1861C441.153 86.1861 441.972 86.3873 442.671 86.7898C443.375 87.1922 443.92 87.7752 444.304 88.5387C444.695 89.3022 444.887 90.2285 444.881 91.3175V100H441.668V91.8146C441.668 90.9032 441.431 90.19 440.957 89.6751C440.49 89.1602 439.842 88.9027 439.013 88.9027C438.451 88.9027 437.951 89.027 437.513 89.2756C437.081 89.5182 436.74 89.8704 436.492 90.332C436.249 90.7937 436.128 91.353 436.128 92.0099ZM454.958 86.3636V88.8494H447.119V86.3636H454.958ZM449.054 83.0966H452.268V95.8984C452.268 96.3305 452.333 96.6619 452.463 96.8928C452.599 97.1177 452.777 97.2715 452.996 97.3544C453.215 97.4373 453.457 97.4787 453.724 97.4787C453.925 97.4787 454.108 97.4639 454.274 97.4343C454.446 97.4047 454.576 97.3781 454.665 97.3544L455.206 99.8668C455.035 99.926 454.789 99.9911 454.469 100.062C454.156 100.133 453.771 100.175 453.315 100.186C452.51 100.21 451.785 100.089 451.14 99.8224C450.495 99.5502 449.983 99.13 449.604 98.5618C449.231 97.9936 449.048 97.2834 449.054 96.4311V83.0966Z" fill="#0A2149"/>
</svg>
