<svg enable-background="new 0 0 231 95" viewBox="0 0 231 95" xmlns="http://www.w3.org/2000/svg"><g fill="#2c2939" transform="translate(-8.477 13.592)"><path d="m75.2 47.4v-26h10c3.2 0 5.6.8 7.4 2.3 1.8 1.6 2.7 4 2.6 6.4.1 2.4-.8 4.8-2.6 6.4-1.7 1.5-4.2 2.3-7.4 2.3h-5.2v8.6zm4.8-12.8h4.8c2.1 0 3.6-.4 4.3-1.1.8-.9 1.2-2.1 1.2-3.3.1-1.2-.3-2.4-1.2-3.3-.8-.7-2.2-1.1-4.3-1.1h-4.8z"/><path d="m96.2 41c0-.4 0-.8.1-1.2.1-.5.3-1.1.6-1.5.3-.6.8-1.2 1.4-1.6.8-.6 1.6-1 2.6-1.2 1.3-.4 2.7-.5 4-.5 1.2 0 2.4.1 3.5.3 0-2.5-1.4-3.7-4.2-3.7-2 0-4 .3-5.9 1v-3.8c2-.7 4.1-1 6.2-1 2.9 0 5 .7 6.6 2.1s2.3 3.5 2.3 6.1v5.2c0 .9-.2 1.7-.5 2.5-.4.8-.9 1.5-1.5 2.1-1.4 1.3-3.5 1.9-6.4 1.9-3 0-5.1-.6-6.5-1.9-.7-.6-1.2-1.3-1.6-2.1-.6-.9-.7-1.8-.7-2.7zm4.8-.5c0 2.1 1.3 3.1 3.8 3.1 2.4 0 3.6-1 3.6-2.9v-2.4c-1-.1-1.9-.2-2.9-.2-3-.2-4.5.7-4.5 2.4z"/><path d="m115.5 37.6c0-1.5.2-3 .7-4.5.3-1.1.9-2.1 1.6-2.9.6-.7 1.4-1.2 2.2-1.6.7-.4 1.5-.6 2.2-.8.6-.1 1.3-.2 1.9-.2 2.8 0 4.9.6 6.2 1.9.6.6 1.1 1.3 1.5 2.1.3.8.5 1.6.5 2.5v13.8c0 .6-.1 1.2-.2 1.8-.2.7-.4 1.3-.7 1.9-.4.7-.9 1.3-1.5 1.7-.8.6-1.7 1-2.6 1.2-1.3.4-2.6.5-4 .5-2 0-3.9-.2-5.8-.8v-4.2c1.7.5 3.5.8 5.2.8.9 0 1.8-.1 2.7-.2.6-.1 1.1-.3 1.4-.8.2-.3.4-.6.5-.9s.1-.7.1-1v-1c-1 .2-2 .3-3 .3-2.9 0-5.2-.8-6.7-2.5-1.4-1.6-2.2-4-2.2-7.1zm4.8.1c0 2.2.4 3.6 1.1 4.4.9.8 2.1 1.3 3.3 1.2 1 0 1.9-.1 2.9-.3v-9c0-1.4-1.1-2.2-3.3-2.2h-.1c-1.1-.1-2.2.4-2.9 1.4-.6.9-1 2.4-1 4.5z"/><path d="m135.1 37.9c-.1-2.7.6-5.3 2.1-7.5 1.4-1.9 3.7-2.8 6.8-2.8 2.9 0 5.2.9 6.7 2.7 1.5 1.9 2.3 4.3 2.3 6.7 0 1.1 0 1.9-.1 2.4h-13c.1 1.7.6 2.8 1.6 3.4 1.1.6 2.3.9 3.5.9 2.4 0 4.7-.5 6.8-1.5v3.8c-2.3 1.2-4.9 1.8-7.6 1.7-.8 0-1.7-.1-2.5-.2-.9-.2-1.7-.5-2.4-.9-.8-.4-1.6-1-2.2-1.7-.7-.8-1.2-1.8-1.5-2.8-.3-1.4-.5-2.8-.5-4.2zm4.9-1.7h8.1c-.1-1.2-.5-2.4-1.2-3.4-.3-.4-.7-.8-1.2-1s-1-.4-1.6-.3c-1.1-.1-2.1.4-2.8 1.1-.9 1-1.3 2.3-1.3 3.6z"/><path d="m156.5 47.4v-26h9.7c1.1 0 2.3.1 3.4.4 1 .2 2 .6 2.9 1.2.9.5 1.7 1.3 2.1 2.3.5 1.1.8 2.3.8 3.5.1 2.2-1.2 4.2-3.2 5 3.1 1.1 4.7 3.1 4.7 6 0 .7-.1 1.3-.2 2-.2.7-.4 1.4-.8 2-.4.7-1 1.4-1.7 1.9-.9.6-1.8 1-2.9 1.3-1.4.4-2.8.5-4.3.5zm4.9-15.4h5.1c2.8 0 4.2-1 4.2-3.1 0-2.3-1.5-3.4-4.5-3.4h-4.7v6.5zm0 11.3h5.6c3.5 0 5.2-1.3 5.2-3.8 0-2.2-1.8-3.4-5.4-3.4h-5.4z"/><path d="m179.9 38.6v-10.6h4.8v11.2c-.1 1.2.2 2.4 1 3.4.9.8 2 1.1 3.2 1 1.2.1 2.3-.3 3.2-1 .7-1 1.1-2.2 1-3.4v-11.2h4.8v10.6c.1 2.5-.7 4.9-2.4 6.7-3.8 3.2-9.4 3.2-13.3 0-1.6-1.8-2.4-4.3-2.3-6.7z"/><path d="m201.9 47.4v-26.8h4.8v26.8z"/><path d="m210.9 41.1v-20.6h4.8v7.5c1.1-.2 2.2-.3 3.3-.3 3 0 5.3.8 6.9 2.5s2.4 4.1 2.4 7.3c0 1.6-.2 3.1-.7 4.6-.3 1.1-.9 2.1-1.7 3-.7.7-1.4 1.3-2.3 1.7-.7.4-1.5.6-2.3.8-.7.1-1.3.2-2 .2-2.9 0-5-.6-6.4-1.9-.7-.6-1.2-1.3-1.5-2.1-.3-.9-.5-1.8-.5-2.7zm4.8.5c0 1.4 1.2 2.1 3.6 2.1 1.3.1 2.5-.5 3.2-1.5.6-1 .9-2.7.9-5 0-2.2-.4-3.7-1.2-4.6-.9-.9-2.2-1.4-3.4-1.3-1 0-2.1.1-3.1.3z"/><path d="m46.8 55.5c.5-1 .7-2.1.7-3.2h-15.5c0 1.1.2 2.2.7 3.2z"/><path d="m33.2 57.1c.7 1.1 1.7 2 2.8 2.6 2.3 1.3 5.1 1.3 7.5 0 1.1-.6 2.1-1.5 2.8-2.6z"/><path d="m49.2 26.3h-18.9v10.8h18.9zm-2.2 8.9h-14.6v-7.2h14.6z"/><path d="m48.2 22.7h-16.8c-.3 0-.5.1-.7.3-.1.1-.2.2-.2.3-.1.1-.1.3-.1.4v1h18.9v-1c0-.4-.2-.8-.6-.9-.3-.1-.4-.1-.5-.1z"/><path d="m49.2 38.7h-18.9v8h18.9zm-2.2 6.4h-14.6v-1.6h14.6zm-14.6-3.1v-1.6h14.6v1.6z"/><path d="m45.3 29.7h-11.2v3.9h11.2z"/><path d="m39.8 7.1c-3.6 0-7.1.9-10.2 2.7s-5.6 4.3-7.4 7.4c-3.6 6.3-3.4 14 .4 20.1.1.2.3.4.4.7l5.6 8.5v-22.8c0-.3.1-.7.2-1s.3-.6.6-.9c.5-.5 1.2-.8 1.9-.8h16.8c.7 0 1.4.3 1.9.8.2.2.4.5.6.9.1.3.2.7.2 1v23l5.8-9c.1-.1.1-.2.2-.3v-.1c3.8-6.1 4-13.8.4-20.1-1.8-3.1-4.3-5.7-7.4-7.4-3-1.7-6.5-2.7-10-2.7z"/></g></svg>